<?xml version="1.0" encoding="UTF-8"?>
<svg id="_レイヤー_1" data-name="レイヤー 1" xmlns="http://www.w3.org/2000/svg" viewBox="0 0 906.21 663.08">
  <defs>
    <style>
      .cls-1 {
        stroke-dasharray: 11.93 11.93;
      }

      .cls-1, .cls-2, .cls-3, .cls-4, .cls-5 {
        fill: none;
        stroke: #171c1c;
        stroke-miterlimit: 10;
      }

      .cls-6 {
        fill: #171c1c;
      }

      .cls-2 {
        stroke-dasharray: 12.03 12.03;
      }

      .cls-7 {
        fill: #fff;
      }

      .cls-3 {
        stroke-dasharray: 12.13 12.13;
      }

      .cls-8 {
        fill: #55b032;
      }

      .cls-4 {
        stroke-dasharray: 12.12 12.12;
      }

      .cls-5 {
        stroke-width: 5px;
      }

      .cls-9 {
        font-family: PA1GothicStd-Regular-83pv-RKSJ-H, 'A P-OTF A1Gothic Std';
        font-size: 24px;
      }

      .cls-10 {
        fill: #1fb8de;
      }

      .cls-11 {
        fill: #e60012;
      }
    </style>
  </defs>
  <g>
    <line class="cls-5" x1="707.45" y1="513.05" x2="729.58" y2="525.11"/>
    <g>
      <path class="cls-6" d="M703.46,522.37c-1.12-.67-2.72-1.57-5.19-2.8-1.15-.57-1.16-1.18-.46-3.35.3-.94-.6-.84-1.38-1.61-.66-.79.28-2.88.28-2.88.24-.46,0-.6-.18-.61-4.04-.4-6.37-4.4-6.64-4.08-1.51,1.33-3.09.3-3.07-.24-.36.77-1.85.77-2.1.4-.9-1.36-.66-1.86-1.37-2.65-1.23-1.57-.48-2.14-1.98-3.06-1.09-.67-1.36-1.06-1.5-1.45-.54-1.78,1.3-2.75,2.28-2.87.38-1.33,2.89-1.85,3.83-2.62-.52-.3-1.26-.86-2.28-1.96-.53-.58-.55-.17-1.62-.9-1.46-.97-1.96-1.45-2.32-1.93-.21-.28-1.71-1.06-2.34-1.74-2.26-1.69-.67-3.68-.5-3.86.07-.08.09-.06.55.19.59.38,1.87.66,2.7,1.3.33.23.97.38,1.76.96,1.17.4,1.8,1.11,3.29,1.34.22.05.08.2.52.39.23.1.3-.09.91.34.7.49,1.69.93,2.59,1.42.9.49,1.71.69,4.02,1.71.95.41,1.88.39,2.36,1.08.73,1.05,3.39,4.48,6.13,8.37.06.08.29.45.76.07.84-.55.96-.19,2.42.66,1.08.53.74-.7,1.88-.05,1.76,1.01,2.39,1.54,5.02,2.91,1.07.56,1.38.67.99,1.43l-8.64,15.86c-.13.24-.37.43-.7.25Z"/>
      <path class="cls-7" d="M677.2,484.87c-.45.67.95,1.2,1.52,1.38.34.11.84-.25.59-.53l-2.01-.87s-.1,0-.1.02Z"/>
      <path class="cls-7" d="M683.07,498.68c.69.52.45.79.88.96.57.21.21-.25,2,.79.53.29.83.41,1.07.82.26-.05.78-.02.93.39.73.23.54.02,1.52.89,1.32,1.16,1.95.71,2.84.75.23.02.39.02.73.27,2.6,1.85,1.4,1.19,5.38,3.05,1.47.47,2.38.04,3.31-1.8,1.01-2.11.41-2.06-.45-3.16-3.46-4.51-5.57-7.92-6.81-8.49-3.4-1.79-3.12-.84-7.5-3.4-1.31-.94-1.67-.2-2.15-.57-.28-.44.17-.47-1.27-1.09-2.91-1.26-3.2-2.03-3.69-1.73-.66.4-.85.78-2.56-.35-.14-.09-.18-.12-.26-.18-.19-.17-.27-.05-.15.23.1.23,1.18,1.74,3.04,2.4,1.06.37.34.48,1.95,1.35.73.34,1.17.58,1.42.65.56.65,1.92,1.42,2.42,1.55.61.16.96.12,1.3.65.34.53,1.2,1.47,2.89,2.15,1.97.79,2.07.38,2.18.62.25.56-.96.69-.43,1.88.27.62,1.56-.55,2.01-.28.26.19.17.47-.13.7-.14.11-1.14.63-.86,1.22.45.96,2.69.04,3.36,1.29.14.32-.26.44-.54.25-.47-.33-1.58-.31-2.09-.2-.69.17-2.36.08-2.96.02-2.1-.23-2.39-1.07-2.94-.8-.44.19-.71-.6-1.27-1.03-1.05-.82-4.22-1.31-4.28-.59,0,.25.18.33.44.41.27.09.37.14.67.37Z"/>
      <path class="cls-7" d="M682.94,500.46c.05-.72.06-.81-.43-1.23-.43-.37-2.07-.73-2.2-.03.04.27.63.6.96.89.35.31,1.51,1.12,1.67.37Z"/>
      <path class="cls-7" d="M697.74,514.58c-.55-.34-.43-.72-.32-1.14.16-.6,1.76-2.59,3.31-5.34,1.56-2.75,1.9-3.6,2.58-5.17.17-.39.12-1.01.65-.76,1.7.81,2.28.95,1.84,2.4-.52,1.69-3.7,7.63-5.79,10.51-.27.17-.2.84-2.28-.51Z"/>
    </g>
  </g>
  <g>
    <line class="cls-5" x1="182.31" y1="627.1" x2="219.69" y2="626.83"/>
    <g>
      <path class="cls-6" d="M183.34,637.18c-1.31-.04-3.14-.05-5.9.07-1.28.06-1.58-.47-2.03-2.7-.19-.97-.93-.45-1.99-.74-.96-.37-1.15-2.66-1.15-2.66-.01-.52-.29-.53-.46-.45-3.73,1.61-7.7-.76-7.79-.35-.67,1.89-2.56,1.76-2.8,1.28.06.85-1.24,1.56-1.65,1.37-1.45-.75-1.48-1.31-2.49-1.65-1.84-.78-1.46-1.64-3.21-1.72-1.28-.06-1.71-.27-2.01-.54-1.34-1.29-.2-3.04.6-3.62-.31-1.35,1.64-3.02,2.08-4.15-.6,0-1.52-.14-2.94-.61-.74-.25-.56.12-1.86,0-1.75-.14-2.41-.32-2.97-.57-.32-.15-2.01-.1-2.89-.39-2.79-.38-2.37-2.9-2.31-3.13.02-.1.05-.1.57-.1.7.05,1.96-.33,2.99-.17.4.05,1.03-.13,2.01-.01,1.22-.22,2.11.09,3.53-.42.21-.07.17.14.64.09.25-.03.22-.23.96-.15.85.09,1.93,0,2.96-.01,1.03,0,1.83-.22,4.34-.45,1.03-.1,1.83-.57,2.58-.2,1.15.56,5.14,2.27,9.42,4.35.09.04.47.25.7-.31.47-.89.75-.63,2.43-.59,1.2-.06.3-.97,1.62-.95,2.03.03,2.83.19,5.8.11,1.21-.03,1.53-.08,1.56.77l.13,18.06c0,.28-.12.56-.5.56Z"/>
      <path class="cls-7" d="M142.19,617.12c-.07.8,1.41.59,2,.47.35-.07.61-.63.26-.75l-2.18.22s-.08.05-.08.07Z"/>
      <path class="cls-7" d="M154.03,626.36c.86.12.78.48,1.24.41.6-.09.06-.32,2.13-.28.6,0,.93-.05,1.33.2.2-.17.67-.4,1-.11.75-.16.48-.24,1.76.04,1.72.38,2.05-.33,2.85-.72.21-.1.35-.18.77-.12,3.17.36,1.8.36,6.18.06,1.52-.3,2.1-1.12,2.02-3.18-.14-2.33-.64-2-1.93-2.55-5.21-2.27-8.72-4.23-10.07-4.12-3.84.08-3.13.78-8.21.66-1.61-.19-1.55.64-2.15.54-.46-.25-.08-.49-1.64-.34-3.15.31-3.78-.22-4.07.28-.38.67-.37,1.09-2.41.93-.17-.01-.22-.02-.32-.03-.25-.06-.26.09-.02.28.2.15,1.87.95,3.82.62,1.1-.18.53.25,2.36.24.8-.06,1.3-.06,1.55-.12.81.3,2.36.31,2.87.18.61-.16.9-.36,1.45-.06.55.3,1.76.7,3.57.48,2.11-.27,1.99-.67,2.21-.52.49.37-.5,1.07.54,1.85.54.41,1.1-1.24,1.62-1.22.32.04.38.33.23.68-.07.16-.69,1.1-.16,1.48.86.62,2.38-1.27,3.56-.5.28.21-.02.52-.35.48-.57-.06-1.53.49-1.93.84-.52.48-2.02,1.22-2.58,1.45-1.95.82-2.61.22-2.96.72-.3.38-.91-.18-1.61-.29-1.32-.21-4.32.9-4.03,1.56.11.22.32.2.59.15.28-.05.39-.05.77,0Z"/>
      <path class="cls-7" d="M154.77,627.97c-.31-.65-.34-.74-.97-.87-.56-.12-2.16.37-1.94,1.04.17.21.84.22,1.27.32.45.1,1.86.25,1.64-.49Z"/>
      <path class="cls-7" d="M174.56,633.14c-.65-.03-.72-.42-.83-.84-.15-.6.28-3.11.31-6.28.03-3.16-.08-4.07-.25-5.77-.04-.42-.38-.94.2-.98,1.88-.12,2.46-.27,2.77,1.21.36,1.73.46,8.46.04,12-.15.28.23.83-2.24.66Z"/>
    </g>
  </g>
  <rect class="cls-1" x="288.92" y="84.43" width="187.05" height="45.61" rx="7.05" ry="7.05"/>
  <rect class="cls-2" x="22.26" y="167.84" width="865.21" height="307.69" rx="7.05" ry="7.05"/>
  <rect class="cls-3" x="22.66" y="597.36" width="98.43" height="53.18" rx="7.05" ry="7.05"/>
  <g>
    <g>
      <line class="cls-5" x1="177.53" y1="51.91" x2="195" y2="26.62"/>
      <g>
        <path class="cls-6" d="M186.37,56.86c-.78,1.05-1.85,2.54-3.33,4.87-.69,1.08-1.29,1.03-3.38.11-.91-.4-.9.51-1.75,1.2-.85.57-2.83-.58-2.83-.58-.43-.28-.6-.06-.63.11-.82,3.98-5.04,5.87-4.76,6.17,1.16,1.64-.03,3.11-.56,3.03.73.44.57,1.92.17,2.13-1.45.75-1.92.46-2.78,1.09-1.69,1.06-2.18.25-3.26,1.64-.78,1.02-1.2,1.24-1.6,1.34-1.83.35-2.6-1.58-2.62-2.57-1.29-.52-1.53-3.07-2.2-4.09-.35.49-.99,1.17-2.19,2.06-.63.46-.22.53-1.07,1.52-1.12,1.35-1.65,1.79-2.17,2.1-.31.18-1.23,1.59-1.98,2.14-1.92,2.07-3.73.28-3.89.09-.07-.08-.05-.1.24-.53.44-.55.86-1.79,1.58-2.55.27-.3.48-.92,1.14-1.65.52-1.13,1.29-1.68,1.68-3.13.07-.21.21-.06.44-.47.12-.22-.06-.31.43-.87.56-.64,1.1-1.58,1.69-2.43.59-.85.87-1.63,2.12-3.81.51-.9.59-1.82,1.32-2.23,1.12-.62,4.81-2.9,8.97-5.21.09-.05.48-.24.15-.75-.46-.9-.09-.98.91-2.33.64-1.02-.62-.81.15-1.88,1.19-1.65,1.78-2.21,3.42-4.69.67-1.01.82-1.3,1.53-.83l14.86,10.27c.23.15.39.42.17.73Z"/>
        <path class="cls-7" d="M146.32,79.02c.62.51,1.3-.81,1.53-1.37.14-.33-.16-.86-.47-.64l-1.08,1.91s0,.1.01.1Z"/>
        <path class="cls-7" d="M160.67,74.63c.59-.63.84-.37,1.05-.78.27-.55-.22-.23,1-1.91.34-.49.49-.79.93-.97-.02-.26.06-.78.49-.88.3-.7.08-.54,1.04-1.42,1.3-1.19.91-1.87,1.04-2.75.04-.23.06-.39.35-.7,2.11-2.39,1.33-1.27,3.6-5.03.63-1.41.29-2.36-1.44-3.48-1.99-1.22-2.01-.63-3.19.11-4.85,2.96-8.47,4.71-9.16,5.88-2.14,3.19-1.16,3.01-4.17,7.1-1.08,1.21-.37,1.64-.79,2.08-.47.23-.45-.21-1.22,1.14-1.55,2.76-2.35,2.97-2.11,3.49.33.7.68.93-.62,2.51-.11.13-.14.17-.21.24-.19.17-.08.27.22.17.24-.08,1.85-.99,2.71-2.77.48-1.01.51-.29,1.55-1.8.41-.69.7-1.1.8-1.34.71-.49,1.61-1.76,1.8-2.24.22-.59.22-.94.78-1.23.56-.28,1.59-1.04,2.44-2.65.99-1.88.59-2.02.84-2.1.59-.19.58,1.03,1.83.62.64-.21-.38-1.61-.06-2.03.22-.23.49-.12.69.2.09.15.5,1.2,1.12.99,1-.35.32-2.68,1.64-3.21.33-.11.41.31.19.56-.38.43-.48,1.53-.42,2.06.09.7-.17,2.36-.29,2.94-.45,2.07-1.32,2.26-1.1,2.84.14.46-.67.64-1.16,1.15-.92.96-1.75,4.06-1.04,4.2.24.03.35-.14.46-.4.12-.26.18-.35.44-.63Z"/>
        <path class="cls-7" d="M162.42,74.95c-.71-.12-.8-.15-1.27.3-.42.39-.94,1.98-.26,2.19.27-.01.66-.56.99-.86.34-.31,1.27-1.38.54-1.62Z"/>
        <path class="cls-7" d="M178.02,61.72c-.39.51-.76.35-1.16.2-.58-.22-2.39-2.02-4.96-3.86-2.57-1.84-3.38-2.27-4.87-3.12-.37-.21-.99-.23-.69-.72.98-1.61,1.19-2.17,2.58-1.58,1.63.7,7.19,4.48,9.85,6.86.14.29.81.29-.74,2.21Z"/>
      </g>
    </g>
    <rect class="cls-4" x="12.79" y="85.41" width="251.25" height="45.61" rx="7.05" ry="7.05"/>
    <text class="cls-9" transform="translate(194.77 19.45)"><tspan x="0" y="0">プロトコルのバージョン</tspan></text>
  </g>
  <text class="cls-9" transform="translate(733.65 542.81)"><tspan x="0" y="0">ヘッダー</tspan></text>
  <text class="cls-9" transform="translate(238.26 635.33)"><tspan x="0" y="0">レスポンスボディ</tspan></text>
  <g>
    <path class="cls-8" d="M44.64,124.13v-15.38h-14.3v15.38h-4.1v-33.82h4.1v14.65h14.3v-14.65h4.1v33.82h-4.1Z"/>
    <path class="cls-8" d="M65.1,124.13v-30.02h-10.22v-3.8h24.56v3.8h-10.22v30.02h-4.12Z"/>
    <path class="cls-8" d="M94.77,124.13v-30.02h-10.22v-3.8h24.56v3.8h-10.22v30.02h-4.12Z"/>
    <path class="cls-8" d="M127.56,90.31c6.56,0,10.85,4.29,10.85,10.85s-4.34,10.83-10.95,10.83h-7.01v12.14h-4.15v-33.82h11.25ZM120.46,108.31h6.07c4.92,0,7.69-2.55,7.69-7.15s-2.77-7.17-7.69-7.17h-6.07v14.32Z"/>
    <path class="cls-8" d="M145.98,127.34l16.48-40.24h3.91l-16.5,40.24h-3.89Z"/>
    <path class="cls-8" d="M175.05,124.13v-3.63h9.98v-25.5h-.38l-9.68,6.26v-4.41l10.08-6.54h4.05v30.19h9.52v3.63h-23.58Z"/>
    <path class="cls-8" d="M211.28,119.93c0-2.37,1.92-4.31,4.24-4.31s4.24,1.95,4.24,4.31-1.92,4.34-4.24,4.34-4.24-1.95-4.24-4.34Z"/>
    <path class="cls-8" d="M234.39,124.13v-3.63h9.98v-25.5h-.38l-9.68,6.26v-4.41l10.08-6.54h4.05v30.19h9.52v3.63h-23.58Z"/>
  </g>
  <g>
    <path class="cls-11" d="M304.33,89.61c6.21,0,10.48,3.84,10.48,9.49,0,3.52-1.59,6.33-6.98,12.21l-7.97,8.67v.4h15.49v3.75h-21.4v-2.86l11.44-12.73c4.29-4.8,5.32-6.61,5.32-9.28,0-3.63-2.55-6.02-6.49-6.02s-6.47,2.6-6.47,6.59v.14h-3.98v-.14c0-5.95,4.41-10.22,10.57-10.22Z"/>
    <path class="cls-11" d="M322.82,107.23c0-11.39,4.05-17.67,11.41-17.67s11.41,6.28,11.41,17.67-4.08,17.67-11.41,17.67-11.41-6.28-11.41-17.67ZM327.09,110.96l13.64-11.39c-1.1-4.2-3.3-6.35-6.49-6.35-4.78,0-7.31,4.83-7.31,14.02,0,1.34.07,2.58.16,3.73ZM341.52,107.23c0-1.36-.05-2.6-.16-3.77l-13.59,11.48c1.1,4.15,3.28,6.3,6.47,6.3,4.78,0,7.29-4.85,7.29-14.02Z"/>
    <path class="cls-11" d="M352.49,107.23c0-11.39,4.05-17.67,11.41-17.67s11.41,6.28,11.41,17.67-4.08,17.67-11.41,17.67-11.41-6.28-11.41-17.67ZM356.76,110.96l13.64-11.39c-1.1-4.2-3.3-6.35-6.49-6.35-4.78,0-7.31,4.83-7.31,14.02,0,1.34.07,2.58.16,3.73ZM371.2,107.23c0-1.36-.05-2.6-.16-3.77l-13.59,11.48c1.1,4.15,3.28,6.3,6.47,6.3,4.78,0,7.29-4.85,7.29-14.02Z"/>
    <path class="cls-11" d="M423.23,124.83c-7.69,0-12.4-5.53-12.4-14.88v-5.46c0-9.35,4.71-14.88,12.4-14.88s12.4,5.53,12.4,14.88v5.46c0,9.35-4.71,14.88-12.4,14.88ZM431.45,109.93v-5.41c0-7.05-3.09-10.99-8.23-10.99s-8.23,3.94-8.23,10.99v5.41c0,7.05,3.09,10.99,8.23,10.99s8.23-3.94,8.23-10.99Z"/>
    <path class="cls-11" d="M443.13,124.13v-33.82h4.05v16.83h.3l13.69-16.83h4.83l-12.52,14.95,13.73,18.87h-5.13l-11.39-15.68-3.52,4.17v11.51h-4.05Z"/>
  </g>
  <g>
    <path class="cls-10" d="M43.31,198.43h-11.77l-2.95,9.7h-4.2l10.9-33.82h4.41l10.9,33.82h-4.36l-2.93-9.7ZM32.62,194.89h9.61l-4.73-15.61h-.12l-4.76,15.61Z"/>
    <path class="cls-10" d="M56.08,210.87h3.94c.52,2.11,3.07,3.49,6.47,3.49,4.45,0,6.91-2.25,6.91-6.33v-3.96h-.42c-1.12,2.67-3.94,4.29-7.64,4.29-5.88,0-9.75-4.24-9.75-10.76v-4.57c0-6.54,3.89-10.76,9.84-10.76,3.68,0,6.47,1.62,7.57,4.36h.45v-3.94h3.94v25.43c0,5.98-4.08,9.54-10.97,9.54-5.88,0-9.82-2.58-10.34-6.8ZM66.53,204.75c4.2,0,6.89-3.02,6.89-7.71v-3.49c0-4.69-2.7-7.69-6.89-7.69s-6.94,3.02-6.94,7.69v3.49c0,4.66,2.72,7.71,6.94,7.71Z"/>
    <path class="cls-10" d="M107.57,201.57c-.77,4.2-4.8,7.03-10.15,7.03-6.98,0-11.04-4.2-11.04-11.44v-3.82c0-6.7,4.29-11.11,10.76-11.11s10.5,4.38,10.5,11.74v2.48h-17.32v1.03c0,4.66,2.77,7.66,7.1,7.66,3.21,0,5.58-1.36,6.28-3.59h3.87ZM90.32,193.43h13.38c0-4.85-2.48-7.78-6.59-7.78s-6.8,2.91-6.8,7.78Z"/>
    <path class="cls-10" d="M122.27,185.93c0-2.37,1.92-4.34,4.24-4.34s4.24,1.97,4.24,4.34-1.92,4.34-4.24,4.34-4.24-1.97-4.24-4.34ZM122.27,203.93c0-2.37,1.92-4.31,4.24-4.31s4.24,1.95,4.24,4.31-1.92,4.34-4.24,4.34-4.24-1.95-4.24-4.34Z"/>
    <path class="cls-10" d="M189.81,200.98h-15.42v-3.35l11.48-23.32h4.22l-11.32,22.78v.3h11.09v-9.66h3.75v9.61h5.16v3.63h-5.18v7.15h-3.77v-7.15Z"/>
    <path class="cls-10" d="M219.48,200.98h-15.42v-3.35l11.48-23.32h4.22l-11.32,22.78v.3h11.09v-9.66h3.75v9.61h5.16v3.63h-5.18v7.15h-3.77v-7.15Z"/>
    <path class="cls-10" d="M233.81,199.11h3.98c.38,3.54,3.4,5.98,7.36,5.98,4.36,0,7.27-3.07,7.27-7.66s-2.93-7.78-7.27-7.78c-3.02,0-5.53,1.38-6.87,3.77h-3.91l1.71-19.1h18.49v3.73h-15.23l-.94,11.04h.38c1.66-2.02,4.08-3.07,7.05-3.07,6.26,0,10.62,4.66,10.62,11.32s-4.66,11.48-11.53,11.48c-6.3,0-10.76-3.89-11.11-9.7Z"/>
    <path class="cls-10" d="M263.06,199.08c0-4.2,2.72-7.62,6.89-8.62v-.38c-3.4-.94-5.53-3.84-5.53-7.52,0-5.27,4.41-9,10.57-9s10.55,3.73,10.55,9c0,3.68-2.09,6.56-5.53,7.52v.38c4.1.87,6.89,4.36,6.89,8.62,0,5.77-4.88,9.8-11.91,9.8s-11.93-4.03-11.93-9.8ZM282.74,198.75c0-3.87-3.16-6.54-7.76-6.54s-7.76,2.67-7.76,6.54,3.16,6.54,7.76,6.54,7.76-2.67,7.76-6.54ZM281.48,182.91c0-3.45-2.58-5.74-6.49-5.74s-6.52,2.3-6.52,5.74,2.6,5.77,6.52,5.77,6.49-2.3,6.49-5.77Z"/>
    <path class="cls-10" d="M304.33,173.61c6.21,0,10.48,3.84,10.48,9.49,0,3.52-1.59,6.33-6.98,12.21l-7.97,8.67v.4h15.49v3.75h-21.4v-2.86l11.44-12.73c4.29-4.8,5.32-6.61,5.32-9.28,0-3.63-2.55-6.02-6.49-6.02s-6.47,2.6-6.47,6.59v.14h-3.98v-.14c0-5.95,4.41-10.22,10.57-10.22Z"/>
    <path class="cls-10" d="M322.82,191.23c0-11.39,4.05-17.67,11.41-17.67s11.41,6.28,11.41,17.67-4.08,17.67-11.41,17.67-11.41-6.28-11.41-17.67ZM327.09,194.96l13.64-11.39c-1.1-4.2-3.3-6.35-6.49-6.35-4.78,0-7.31,4.83-7.31,14.02,0,1.34.07,2.58.16,3.73ZM341.52,191.23c0-1.36-.05-2.6-.16-3.77l-13.59,11.48c1.1,4.15,3.28,6.3,6.47,6.3,4.78,0,7.29-4.85,7.29-14.02Z"/>
    <path class="cls-10" d="M45.74,281.86h4.17c0,6.54-4.73,10.97-11.65,10.97-7.95,0-12.56-5.37-12.56-14.6v-6.02c0-9.23,4.62-14.6,12.56-14.6,7.12,0,11.53,4.34,11.67,11.55h-4.2c-.14-4.57-3.16-7.64-7.5-7.64-5.46,0-8.32,3.68-8.32,10.69v6.02c0,7.01,2.86,10.69,8.34,10.69,4.5,0,7.36-2.7,7.48-7.05Z"/>
    <path class="cls-10" d="M56.5,284.91c0-4.5,3.23-7.17,9.02-7.48l6.98-.35v-2.3c0-3.19-1.95-4.95-5.48-4.95-2.93,0-4.99,1.24-5.65,3.42h-3.91c.47-4.08,4.41-6.87,9.61-6.87,5.98,0,9.4,3.05,9.4,8.34v17.41h-3.8v-3.82h-.4c-1.22,2.72-3.98,4.24-7.69,4.24-4.85,0-8.09-3.05-8.09-7.66ZM72.51,283.13v-3l-6.54.3c-3.56.16-5.44,1.69-5.44,4.34s1.99,4.31,5.2,4.31c3.84,0,6.77-2.55,6.77-5.95Z"/>
    <path class="cls-10" d="M103.49,274.62c-.49-2.98-2.98-4.85-6.26-4.85-4.43,0-6.89,3.02-6.89,8.48v2.3c0,5.46,2.46,8.46,6.89,8.46,3.28,0,5.77-1.85,6.26-4.76h3.94c-.63,5.18-4.5,8.34-10.12,8.34-6.91,0-10.95-4.24-10.95-11.53v-3.33c0-7.29,4.03-11.53,10.95-11.53,5.62,0,9.47,3.19,10.12,8.41h-3.94Z"/>
    <path class="cls-10" d="M116.08,256.72h3.84v14.48h.33c1.34-3.16,4.27-4.95,8.16-4.95,5.53,0,8.53,3.33,8.53,9.4v16.48h-3.98v-15.47c0-4.57-1.88-6.75-5.86-6.75-4.2,0-7.03,2.93-7.03,7.27v14.95h-3.98v-35.41Z"/>
    <path class="cls-10" d="M166.91,285.57c-.77,4.2-4.8,7.03-10.15,7.03-6.98,0-11.04-4.2-11.04-11.44v-3.82c0-6.7,4.29-11.11,10.76-11.11s10.5,4.38,10.5,11.74v2.48h-17.32v1.03c0,4.66,2.77,7.66,7.1,7.66,3.21,0,5.58-1.36,6.28-3.59h3.87ZM149.66,277.43h13.38c0-4.85-2.48-7.78-6.59-7.78s-6.8,2.91-6.8,7.78Z"/>
    <path class="cls-10" d="M173.45,278.98v-3.7h24.8v3.7h-24.8Z"/>
    <path class="cls-10" d="M223.77,281.86h4.17c0,6.54-4.73,10.97-11.65,10.97-7.95,0-12.56-5.37-12.56-14.6v-6.02c0-9.23,4.62-14.6,12.56-14.6,7.12,0,11.53,4.34,11.67,11.55h-4.2c-.14-4.57-3.16-7.64-7.5-7.64-5.46,0-8.32,3.68-8.32,10.69v6.02c0,7.01,2.86,10.69,8.34,10.69,4.5,0,7.36-2.7,7.48-7.05Z"/>
    <path class="cls-10" d="M234.18,281.35v-3.84c0-6.87,4.29-11.25,11.02-11.25s11.02,4.38,11.02,11.25v3.84c0,6.87-4.29,11.25-11.02,11.25s-11.02-4.38-11.02-11.25ZM238.12,277.86v3.12c0,5.02,2.72,8.09,7.08,8.09s7.08-3.07,7.08-8.09v-3.12c0-4.99-2.72-8.09-7.08-8.09s-7.08,3.09-7.08,8.09Z"/>
    <path class="cls-10" d="M264.46,266.7h3.82v4.48h.33c1.36-3.16,4.27-4.95,8.13-4.95,5.53,0,8.53,3.3,8.53,9.4v16.5h-3.98v-15.49c0-4.59-1.88-6.75-5.84-6.75-4.2,0-7.01,2.93-7.01,7.27v14.98h-3.98v-25.43Z"/>
    <path class="cls-10" d="M304.14,259.88v6.89h10.31v3.4h-10.27v14.34c0,2.77,1.95,4.27,5.53,4.27,1.43,0,3.98-.07,4.66-.14v3.38c-.63.12-3.73.23-4.95.23-6.3,0-9.23-2.39-9.23-7.69v-14.39h-6.77v-3.4h6.77v-6.89h3.94Z"/>
    <path class="cls-10" d="M333.2,288.94h7.88v3.19h-16.9v-3.19h5.13v-19.05h-5.65v-3.19h9.49v6.49h.52c.94-4.71,4.1-7.15,9-7.15,1.45,0,2.84.21,3.68.56v4.48c-1.17-.42-2.81-.7-4.2-.7-5.62,0-8.95,3.89-8.95,10.36v8.2Z"/>
    <path class="cls-10" d="M352.87,281.35v-3.84c0-6.87,4.29-11.25,11.02-11.25s11.02,4.38,11.02,11.25v3.84c0,6.87-4.29,11.25-11.02,11.25s-11.02-4.38-11.02-11.25ZM356.81,277.86v3.12c0,5.02,2.72,8.09,7.08,8.09s7.08-3.07,7.08-8.09v-3.12c0-4.99-2.72-8.09-7.08-8.09s-7.08,3.09-7.08,8.09Z"/>
    <path class="cls-10" d="M383.59,292.13v-3.3h8.7v-28.8h-8.62v-3.3h12.61v32.11h8.39v3.3h-21.07Z"/>
    <path class="cls-10" d="M418.99,269.93c0-2.37,1.92-4.34,4.24-4.34s4.24,1.97,4.24,4.34-1.92,4.34-4.24,4.34-4.24-1.97-4.24-4.34ZM418.99,287.93c0-2.37,1.92-4.31,4.24-4.31s4.24,1.95,4.24,4.31-1.92,4.34-4.24,4.34-4.24-1.95-4.24-4.34Z"/>
    <path class="cls-10" d="M494.83,292.13h-3.59v-17.55c0-3.09-1.12-4.71-3.26-4.71s-3.59,1.95-3.59,5.11v17.16h-3.56v-17.58c0-3.07-1.12-4.69-3.28-4.69s-3.66,1.95-3.66,5.11v17.16h-3.59v-25.43h3.56v3.59h.42c.63-2.55,2.46-4.05,4.85-4.05s4.08,1.48,4.62,3.98h.42c.66-2.44,2.7-3.98,5.25-3.98,3.54,0,5.39,2.46,5.39,7.17v18.73Z"/>
    <path class="cls-10" d="M501.58,284.91c0-4.5,3.23-7.17,9.02-7.48l6.98-.35v-2.3c0-3.19-1.95-4.95-5.48-4.95-2.93,0-4.99,1.24-5.65,3.42h-3.91c.47-4.08,4.41-6.87,9.61-6.87,5.98,0,9.4,3.05,9.4,8.34v17.41h-3.8v-3.82h-.4c-1.22,2.72-3.98,4.24-7.69,4.24-4.85,0-8.09-3.05-8.09-7.66ZM517.59,283.13v-3l-6.54.3c-3.56.16-5.44,1.69-5.44,4.34s1.99,4.31,5.2,4.31c3.84,0,6.77-2.55,6.77-5.95Z"/>
    <path class="cls-10" d="M541.7,282.33l-6.42,9.8h-4.41l8.72-12.73-8.79-12.7h4.71l6.33,9.63h.33l6.3-9.63h4.48l-8.7,12.54,8.77,12.89h-4.62l-6.4-9.8h-.3Z"/>
    <path class="cls-10" d="M559.19,278.98v-3.7h24.8v3.7h-24.8Z"/>
    <path class="cls-10" d="M590.59,284.91c0-4.5,3.23-7.17,9.02-7.48l6.98-.35v-2.3c0-3.19-1.95-4.95-5.48-4.95-2.93,0-4.99,1.24-5.65,3.42h-3.91c.47-4.08,4.41-6.87,9.61-6.87,5.98,0,9.4,3.05,9.4,8.34v17.41h-3.8v-3.82h-.4c-1.22,2.72-3.98,4.24-7.69,4.24-4.85,0-8.09-3.05-8.09-7.66ZM606.6,283.13v-3l-6.54.3c-3.56.16-5.44,1.69-5.44,4.34s1.99,4.31,5.2,4.31c3.84,0,6.77-2.55,6.77-5.95Z"/>
    <path class="cls-10" d="M619.84,294.87h3.94c.52,2.11,3.07,3.49,6.47,3.49,4.45,0,6.91-2.25,6.91-6.33v-3.96h-.42c-1.12,2.67-3.94,4.29-7.64,4.29-5.88,0-9.75-4.24-9.75-10.76v-4.57c0-6.54,3.89-10.76,9.84-10.76,3.68,0,6.47,1.62,7.57,4.36h.45v-3.94h3.94v25.43c0,5.98-4.08,9.54-10.97,9.54-5.88,0-9.82-2.58-10.34-6.8ZM630.3,288.75c4.2,0,6.89-3.02,6.89-7.71v-3.49c0-4.69-2.7-7.69-6.89-7.69s-6.94,3.02-6.94,7.69v3.49c0,4.66,2.72,7.71,6.94,7.71Z"/>
    <path class="cls-10" d="M671.34,285.57c-.77,4.2-4.8,7.03-10.15,7.03-6.98,0-11.04-4.2-11.04-11.44v-3.82c0-6.7,4.29-11.11,10.76-11.11s10.5,4.38,10.5,11.74v2.48h-17.32v1.03c0,4.66,2.77,7.66,7.1,7.66,3.21,0,5.58-1.36,6.28-3.59h3.87ZM654.09,277.43h13.38c0-4.85-2.48-7.78-6.59-7.78s-6.8,2.91-6.8,7.78Z"/>
    <path class="cls-10" d="M677.88,273.73v-3.87h24.8v3.87h-24.8ZM677.88,284.42v-3.87h24.8v3.87h-24.8Z"/>
    <path class="cls-10" d="M720.02,292.83c-6.66,0-11.46-4.83-11.46-11.55,0-3.96,1.34-7.55,4.57-12.26.3-.52,7.34-10.36,7.57-10.71h4.76l-9.23,12.68c-1.03,1.45-.94,1.36-1.1,1.73l.35.19c1.01-1.36,3.45-2.37,5.6-2.37,6.02,0,10.48,4.57,10.48,10.73,0,6.7-4.83,11.55-11.53,11.55ZM727.54,281.49c0-4.36-3.23-7.69-7.5-7.69s-7.48,3.33-7.48,7.69,3.23,7.66,7.48,7.66,7.5-3.33,7.5-7.66Z"/>
    <path class="cls-10" d="M738.23,275.23c0-11.39,4.05-17.67,11.41-17.67s11.41,6.28,11.41,17.67-4.08,17.67-11.41,17.67-11.41-6.28-11.41-17.67ZM742.49,278.96l13.64-11.39c-1.1-4.2-3.3-6.35-6.49-6.35-4.78,0-7.31,4.83-7.31,14.02,0,1.34.07,2.58.16,3.73ZM756.93,275.23c0-1.36-.05-2.6-.16-3.77l-13.59,11.48c1.1,4.15,3.28,6.3,6.47,6.3,4.78,0,7.29-4.85,7.29-14.02Z"/>
    <path class="cls-10" d="M783.25,284.98h-15.42v-3.35l11.48-23.32h4.22l-11.32,22.78v.3h11.09v-9.66h3.75v9.61h5.16v3.63h-5.18v7.15h-3.77v-7.15Z"/>
    <path class="cls-10" d="M797.15,283.08c0-4.2,2.72-7.62,6.89-8.62v-.38c-3.4-.94-5.53-3.84-5.53-7.52,0-5.27,4.41-9,10.57-9s10.55,3.73,10.55,9c0,3.68-2.09,6.56-5.53,7.52v.38c4.1.87,6.89,4.36,6.89,8.62,0,5.77-4.88,9.8-11.91,9.8s-11.93-4.03-11.93-9.8ZM816.84,282.75c0-3.87-3.16-6.54-7.76-6.54s-7.76,2.67-7.76,6.54,3.16,6.54,7.76,6.54,7.76-2.67,7.76-6.54ZM815.57,266.91c0-3.45-2.58-5.74-6.49-5.74s-6.52,2.3-6.52,5.74,2.6,5.77,6.52,5.77,6.49-2.3,6.49-5.77Z"/>
    <path class="cls-10" d="M827.24,275.23c0-11.39,4.05-17.67,11.41-17.67s11.41,6.28,11.41,17.67-4.08,17.67-11.41,17.67-11.41-6.28-11.41-17.67ZM831.51,278.96l13.64-11.39c-1.1-4.2-3.3-6.35-6.49-6.35-4.78,0-7.31,4.83-7.31,14.02,0,1.34.07,2.58.16,3.73ZM845.95,275.23c0-1.36-.05-2.6-.16-3.77l-13.59,11.48c1.1,4.15,3.28,6.3,6.47,6.3,4.78,0,7.29-4.85,7.29-14.02Z"/>
    <path class="cls-10" d="M856.92,275.23c0-11.39,4.05-17.67,11.41-17.67s11.41,6.28,11.41,17.67-4.08,17.67-11.41,17.67-11.41-6.28-11.41-17.67ZM861.18,278.96l13.64-11.39c-1.1-4.2-3.3-6.35-6.49-6.35-4.78,0-7.31,4.83-7.31,14.02,0,1.34.07,2.58.16,3.73ZM875.62,275.23c0-1.36-.05-2.6-.16-3.77l-13.59,11.48c1.1,4.15,3.28,6.3,6.47,6.3,4.78,0,7.29-4.85,7.29-14.02Z"/>
    <path class="cls-10" d="M33.25,371.93c0-2.37,1.92-4.31,4.24-4.31s4.24,1.95,4.24,4.31-1.92,4.34-4.24,4.34-4.24-1.95-4.24-4.34Z"/>
    <path class="cls-10" d="M62.92,371.93c0-2.37,1.92-4.31,4.24-4.31s4.24,1.95,4.24,4.31-1.92,4.34-4.24,4.34-4.24-1.95-4.24-4.34Z"/>
    <path class="cls-10" d="M92.59,371.93c0-2.37,1.92-4.31,4.24-4.31s4.24,1.95,4.24,4.31-1.92,4.34-4.24,4.34-4.24-1.95-4.24-4.34Z"/>
    <path class="cls-10" d="M45.74,449.86h4.17c0,6.54-4.73,10.97-11.65,10.97-7.95,0-12.56-5.37-12.56-14.6v-6.02c0-9.23,4.62-14.6,12.56-14.6,7.12,0,11.53,4.34,11.67,11.55h-4.2c-.14-4.57-3.16-7.64-7.5-7.64-5.46,0-8.32,3.68-8.32,10.69v6.02c0,7.01,2.86,10.69,8.34,10.69,4.5,0,7.36-2.7,7.48-7.05Z"/>
    <path class="cls-10" d="M56.15,449.35v-3.84c0-6.87,4.29-11.25,11.02-11.25s11.02,4.38,11.02,11.25v3.84c0,6.87-4.29,11.25-11.02,11.25s-11.02-4.38-11.02-11.25ZM60.09,445.86v3.12c0,5.02,2.72,8.09,7.08,8.09s7.08-3.07,7.08-8.09v-3.12c0-4.99-2.72-8.09-7.08-8.09s-7.08,3.09-7.08,8.09Z"/>
    <path class="cls-10" d="M86.43,434.7h3.82v4.48h.33c1.36-3.16,4.27-4.95,8.13-4.95,5.53,0,8.53,3.3,8.53,9.4v16.5h-3.98v-15.49c0-4.59-1.88-6.75-5.84-6.75-4.2,0-7.01,2.93-7.01,7.27v14.98h-3.98v-25.43Z"/>
    <path class="cls-10" d="M126.11,427.88v6.89h10.31v3.4h-10.27v14.34c0,2.77,1.95,4.27,5.53,4.27,1.43,0,3.98-.07,4.66-.14v3.38c-.63.12-3.73.23-4.95.23-6.3,0-9.23-2.39-9.23-7.69v-14.39h-6.77v-3.4h6.77v-6.89h3.94Z"/>
    <path class="cls-10" d="M166.91,453.57c-.77,4.2-4.8,7.03-10.15,7.03-6.98,0-11.04-4.2-11.04-11.44v-3.82c0-6.7,4.29-11.11,10.76-11.11s10.5,4.38,10.5,11.74v2.48h-17.32v1.03c0,4.66,2.77,7.66,7.1,7.66,3.21,0,5.58-1.36,6.28-3.59h3.87ZM149.66,445.43h13.38c0-4.85-2.48-7.78-6.59-7.78s-6.8,2.91-6.8,7.78Z"/>
    <path class="cls-10" d="M175.45,434.7h3.82v4.48h.33c1.36-3.16,4.27-4.95,8.13-4.95,5.53,0,8.53,3.3,8.53,9.4v16.5h-3.98v-15.49c0-4.59-1.88-6.75-5.84-6.75-4.2,0-7.01,2.93-7.01,7.27v14.98h-3.98v-25.43Z"/>
    <path class="cls-10" d="M215.13,427.88v6.89h10.31v3.4h-10.27v14.34c0,2.77,1.95,4.27,5.53,4.27,1.43,0,3.98-.07,4.66-.14v3.38c-.63.12-3.73.23-4.95.23-6.3,0-9.23-2.39-9.23-7.69v-14.39h-6.77v-3.4h6.77v-6.89h3.94Z"/>
    <path class="cls-10" d="M232.8,446.98v-3.7h24.8v3.7h-24.8Z"/>
    <path class="cls-10" d="M286.33,460.13h-20.13v-33.82h4.1v29.98h16.03v3.84Z"/>
    <path class="cls-10" d="M315.27,453.57c-.77,4.2-4.8,7.03-10.15,7.03-6.98,0-11.04-4.2-11.04-11.44v-3.82c0-6.7,4.29-11.11,10.76-11.11s10.5,4.38,10.5,11.74v2.48h-17.32v1.03c0,4.66,2.77,7.66,7.1,7.66,3.21,0,5.58-1.36,6.28-3.59h3.87ZM298.02,445.43h13.38c0-4.85-2.48-7.78-6.59-7.78s-6.8,2.91-6.8,7.78Z"/>
    <path class="cls-10" d="M323.81,434.7h3.82v4.48h.33c1.36-3.16,4.27-4.95,8.13-4.95,5.53,0,8.53,3.3,8.53,9.4v16.5h-3.98v-15.49c0-4.59-1.88-6.75-5.84-6.75-4.2,0-7.01,2.93-7.01,7.27v14.98h-3.98v-25.43Z"/>
    <path class="cls-10" d="M352.8,462.87h3.94c.52,2.11,3.07,3.49,6.47,3.49,4.45,0,6.91-2.25,6.91-6.33v-3.96h-.42c-1.12,2.67-3.94,4.29-7.64,4.29-5.88,0-9.75-4.24-9.75-10.76v-4.57c0-6.54,3.89-10.76,9.84-10.76,3.68,0,6.47,1.62,7.57,4.36h.45v-3.94h3.94v25.43c0,5.98-4.08,9.54-10.97,9.54-5.88,0-9.82-2.58-10.34-6.8ZM363.25,456.75c4.2,0,6.89-3.02,6.89-7.71v-3.49c0-4.69-2.7-7.69-6.89-7.69s-6.94,3.02-6.94,7.69v3.49c0,4.66,2.72,7.71,6.94,7.71Z"/>
    <path class="cls-10" d="M393.16,427.88v6.89h10.31v3.4h-10.27v14.34c0,2.77,1.95,4.27,5.53,4.27,1.43,0,3.98-.07,4.66-.14v3.38c-.63.12-3.73.23-4.95.23-6.3,0-9.23-2.39-9.23-7.69v-14.39h-6.77v-3.4h6.77v-6.89h3.94Z"/>
    <path class="cls-10" d="M412.8,424.72h3.84v14.48h.33c1.34-3.16,4.27-4.95,8.16-4.95,5.53,0,8.53,3.33,8.53,9.4v16.48h-3.98v-15.47c0-4.57-1.88-6.75-5.86-6.75-4.2,0-7.03,2.93-7.03,7.27v14.95h-3.98v-35.41Z"/>
    <path class="cls-10" d="M448.66,437.93c0-2.37,1.92-4.34,4.24-4.34s4.24,1.97,4.24,4.34-1.92,4.34-4.24,4.34-4.24-1.97-4.24-4.34ZM448.66,455.93c0-2.37,1.92-4.31,4.24-4.31s4.24,1.95,4.24,4.31-1.92,4.34-4.24,4.34-4.24-1.95-4.24-4.34Z"/>
    <path class="cls-10" d="M501.44,460.13v-3.63h9.98v-25.5h-.38l-9.68,6.26v-4.41l10.08-6.54h4.05v30.19h9.52v3.63h-23.58Z"/>
    <path class="cls-10" d="M541.7,425.61c6.21,0,10.48,3.84,10.48,9.49,0,3.52-1.59,6.33-6.98,12.21l-7.97,8.67v.4h15.49v3.75h-21.4v-2.86l11.44-12.73c4.29-4.8,5.32-6.61,5.32-9.28,0-3.63-2.55-6.02-6.49-6.02s-6.47,2.6-6.47,6.59v.14h-3.98v-.14c0-5.95,4.41-10.22,10.57-10.22Z"/>
    <path class="cls-10" d="M560.2,451.11h3.98c.38,3.54,3.4,5.98,7.36,5.98,4.36,0,7.27-3.07,7.27-7.66s-2.93-7.78-7.27-7.78c-3.02,0-5.53,1.38-6.87,3.77h-3.91l1.71-19.1h18.49v3.73h-15.23l-.94,11.04h.38c1.66-2.02,4.08-3.07,7.05-3.07,6.26,0,10.62,4.66,10.62,11.32s-4.66,11.48-11.53,11.48c-6.3,0-10.76-3.89-11.11-9.7Z"/>
    <path class="cls-10" d="M601.33,460.83c-6.66,0-11.46-4.83-11.46-11.55,0-3.96,1.34-7.55,4.57-12.26.3-.52,7.34-10.36,7.57-10.71h4.76l-9.23,12.68c-1.03,1.45-.94,1.36-1.1,1.73l.35.19c1.01-1.36,3.45-2.37,5.6-2.37,6.02,0,10.48,4.57,10.48,10.73,0,6.7-4.83,11.55-11.53,11.55ZM608.85,449.49c0-4.36-3.23-7.69-7.5-7.69s-7.48,3.33-7.48,7.69,3.23,7.66,7.48,7.66,7.5-3.33,7.5-7.66Z"/>
  </g>
  <g>
    <path d="M33.25,623.93c0-2.37,1.92-4.31,4.24-4.31s4.24,1.95,4.24,4.31-1.92,4.34-4.24,4.34-4.24-1.95-4.24-4.34Z"/>
    <path d="M62.92,623.93c0-2.37,1.92-4.31,4.24-4.31s4.24,1.95,4.24,4.31-1.92,4.34-4.24,4.34-4.24-1.95-4.24-4.34Z"/>
    <path d="M92.59,623.93c0-2.37,1.92-4.31,4.24-4.31s4.24,1.95,4.24,4.31-1.92,4.34-4.24,4.34-4.24-1.95-4.24-4.34Z"/>
  </g>
  <g>
    <line class="cls-5" x1="497.67" y1="55.5" x2="515.13" y2="30.21"/>
    <g>
      <path class="cls-6" d="M506.51,60.45c-.78,1.05-1.85,2.54-3.33,4.87-.69,1.08-1.29,1.03-3.38.11-.91-.4-.9.51-1.75,1.2-.85.57-2.83-.58-2.83-.58-.43-.28-.6-.06-.63.11-.82,3.98-5.04,5.87-4.76,6.17,1.16,1.64-.03,3.11-.56,3.03.73.44.57,1.92.17,2.13-1.45.75-1.92.46-2.78,1.09-1.69,1.06-2.18.25-3.26,1.64-.78,1.02-1.2,1.24-1.6,1.34-1.83.35-2.6-1.58-2.62-2.57-1.29-.52-1.53-3.07-2.2-4.09-.35.49-.99,1.17-2.19,2.06-.63.46-.22.53-1.07,1.52-1.12,1.35-1.65,1.79-2.17,2.1-.31.18-1.23,1.59-1.98,2.14-1.92,2.07-3.73.28-3.89.09-.07-.08-.05-.1.24-.53.44-.55.86-1.79,1.58-2.55.27-.3.48-.92,1.14-1.65.52-1.13,1.29-1.68,1.68-3.13.07-.21.21-.06.44-.47.12-.22-.06-.31.43-.87.56-.64,1.1-1.58,1.69-2.43.59-.85.87-1.63,2.12-3.81.51-.9.59-1.82,1.32-2.23,1.12-.62,4.81-2.9,8.97-5.21.09-.05.48-.24.15-.75-.46-.9-.09-.98.91-2.33.64-1.02-.62-.81.15-1.88,1.19-1.65,1.78-2.21,3.42-4.69.67-1.01.82-1.3,1.53-.83l14.86,10.27c.23.15.39.42.17.73Z"/>
      <path class="cls-7" d="M466.45,82.61c.62.51,1.3-.81,1.53-1.37.14-.33-.16-.86-.47-.64l-1.08,1.91s0,.1.01.1Z"/>
      <path class="cls-7" d="M480.81,78.22c.59-.63.84-.37,1.05-.78.27-.55-.22-.23,1-1.91.34-.49.49-.79.93-.97-.02-.26.06-.78.49-.88.3-.7.08-.54,1.04-1.42,1.3-1.19.91-1.87,1.04-2.75.04-.23.06-.39.35-.7,2.11-2.39,1.33-1.27,3.6-5.03.63-1.41.29-2.36-1.44-3.48-1.99-1.22-2.01-.63-3.19.11-4.85,2.96-8.47,4.71-9.16,5.88-2.14,3.19-1.16,3.01-4.17,7.1-1.08,1.21-.37,1.64-.79,2.08-.47.23-.45-.21-1.22,1.14-1.55,2.76-2.35,2.97-2.11,3.49.33.7.68.93-.62,2.51-.11.13-.14.17-.21.24-.19.17-.08.27.22.17.24-.08,1.85-.99,2.71-2.77.48-1.01.51-.29,1.55-1.8.41-.69.7-1.1.8-1.34.71-.49,1.61-1.76,1.8-2.24.22-.59.22-.94.78-1.23.56-.28,1.59-1.04,2.44-2.65.99-1.88.59-2.02.84-2.1.59-.19.58,1.03,1.83.62.64-.21-.38-1.61-.06-2.03.22-.23.49-.12.69.2.09.15.5,1.2,1.12.99,1-.35.32-2.68,1.64-3.21.33-.11.41.31.19.56-.38.43-.48,1.53-.42,2.06.09.7-.17,2.36-.29,2.94-.45,2.07-1.32,2.26-1.1,2.84.14.46-.67.64-1.16,1.15-.92.96-1.75,4.06-1.04,4.2.24.03.35-.14.46-.4.12-.26.18-.35.44-.63Z"/>
      <path class="cls-7" d="M482.56,78.54c-.71-.12-.8-.15-1.27.3-.42.39-.94,1.98-.26,2.19.27-.01.66-.56.99-.86.34-.31,1.27-1.38.54-1.62Z"/>
      <path class="cls-7" d="M498.16,65.31c-.39.51-.76.35-1.16.2-.58-.22-2.39-2.02-4.96-3.86-2.57-1.84-3.38-2.27-4.87-3.12-.37-.21-.99-.23-.69-.72.98-1.61,1.19-2.17,2.58-1.58,1.63.7,7.19,4.48,9.85,6.86.14.29.81.29-.74,2.21Z"/>
    </g>
  </g>
  <text class="cls-9" transform="translate(514.91 23.04)"><tspan x="0" y="0">レスポンスステータスコード</tspan></text>
</svg>