<?xml version="1.0" encoding="UTF-8"?>
<svg id="_レイヤー_1" data-name="レイヤー 1" xmlns="http://www.w3.org/2000/svg" xmlns:xlink="http://www.w3.org/1999/xlink" viewBox="0 0 1472.3 460.64">
  <defs>
    <style>
      .cls-1, .cls-2, .cls-3 {
        fill: none;
      }

      .cls-2 {
        stroke: #2d4459;
        stroke-linejoin: round;
      }

      .cls-2, .cls-3 {
        stroke-width: 2px;
      }

      .cls-4 {
        letter-spacing: 0em;
      }

      .cls-5 {
        fill: #fff;
        fill-rule: evenodd;
      }

      .cls-3 {
        stroke: #000;
      }

      .cls-6, .cls-7 {
        font-family: ArialMT, Arial;
      }

      .cls-6, .cls-7, .cls-8, .cls-9 {
        fill: #2d4459;
      }

      .cls-6, .cls-8 {
        font-size: 32.28px;
      }

      .cls-7, .cls-9 {
        font-size: 32.25px;
      }

      .cls-8, .cls-9 {
        font-family: MS-PGothic, MS-PGothic;
      }

      .cls-10 {
        clip-path: url(#clippath-17);
      }

      .cls-11 {
        clip-path: url(#clippath-19);
      }

      .cls-12 {
        clip-path: url(#clippath-11);
      }

      .cls-13 {
        clip-path: url(#clippath-16);
      }

      .cls-14 {
        clip-path: url(#clippath-18);
      }

      .cls-15 {
        clip-path: url(#clippath-10);
      }

      .cls-16 {
        clip-path: url(#clippath-15);
      }

      .cls-17 {
        clip-path: url(#clippath-13);
      }

      .cls-18 {
        clip-path: url(#clippath-14);
      }

      .cls-19 {
        clip-path: url(#clippath-12);
      }

      .cls-20 {
        clip-path: url(#clippath-20);
      }

      .cls-21 {
        clip-path: url(#clippath-21);
      }

      .cls-22 {
        clip-path: url(#clippath-22);
      }

      .cls-23 {
        clip-path: url(#clippath-23);
      }

      .cls-24 {
        clip-path: url(#clippath-24);
      }

      .cls-25 {
        clip-path: url(#clippath-25);
      }

      .cls-26 {
        clip-path: url(#clippath-1);
      }

      .cls-27 {
        clip-path: url(#clippath-3);
      }

      .cls-28 {
        clip-path: url(#clippath-4);
      }

      .cls-29 {
        clip-path: url(#clippath-2);
      }

      .cls-30 {
        clip-path: url(#clippath-7);
      }

      .cls-31 {
        clip-path: url(#clippath-6);
      }

      .cls-32 {
        clip-path: url(#clippath-9);
      }

      .cls-33 {
        clip-path: url(#clippath-8);
      }

      .cls-34 {
        clip-path: url(#clippath-5);
      }

      .cls-35 {
        letter-spacing: 0em;
      }

      .cls-36 {
        letter-spacing: 0em;
      }

      .cls-37 {
        letter-spacing: 0em;
      }

      .cls-38 {
        letter-spacing: 0em;
      }

      .cls-39 {
        letter-spacing: 0em;
      }

      .cls-40 {
        letter-spacing: 0em;
      }

      .cls-41 {
        letter-spacing: 0em;
      }

      .cls-42 {
        letter-spacing: 0em;
      }

      .cls-43 {
        letter-spacing: 0em;
      }

      .cls-44 {
        fill: #fe5e48;
      }

      .cls-45 {
        letter-spacing: -.02em;
      }

      .cls-46 {
        letter-spacing: -.02em;
      }

      .cls-47 {
        letter-spacing: -.02em;
      }

      .cls-48 {
        letter-spacing: -.02em;
      }

      .cls-49 {
        letter-spacing: -.02em;
      }

      .cls-50 {
        letter-spacing: -.02em;
      }

      .cls-51 {
        letter-spacing: -.02em;
      }

      .cls-52 {
        letter-spacing: -.02em;
      }

      .cls-53 {
        letter-spacing: -.02em;
      }

      .cls-54 {
        letter-spacing: -.02em;
      }

      .cls-55 {
        letter-spacing: -.02em;
      }

      .cls-56 {
        letter-spacing: -.02em;
      }

      .cls-57 {
        letter-spacing: -.01em;
      }

      .cls-58 {
        letter-spacing: 0em;
      }

      .cls-59 {
        letter-spacing: 0em;
      }

      .cls-60 {
        letter-spacing: 0em;
      }

      .cls-61 {
        letter-spacing: -.01em;
      }

      .cls-62 {
        letter-spacing: 0em;
      }

      .cls-63 {
        letter-spacing: -.01em;
      }

      .cls-64 {
        letter-spacing: 0em;
      }

      .cls-65 {
        letter-spacing: 0em;
      }

      .cls-66 {
        letter-spacing: 0em;
      }

      .cls-67 {
        letter-spacing: 0em;
      }

      .cls-68 {
        clip-path: url(#clippath);
      }
    </style>
    <clipPath id="clippath">
      <rect class="cls-1" x="-223.85" y="-352.79" width="1920" height="1080"/>
    </clipPath>
    <clipPath id="clippath-1">
      <rect class="cls-1" x="-223.85" y="-352.79" width="1920" height="1080"/>
    </clipPath>
    <clipPath id="clippath-2">
      <rect class="cls-1" x="-223.85" y="-352.79" width="1920" height="1080"/>
    </clipPath>
    <clipPath id="clippath-3">
      <rect class="cls-1" x="-223.85" y="-352.79" width="1920" height="1080"/>
    </clipPath>
    <clipPath id="clippath-4">
      <rect class="cls-1" x="-223.85" y="-352.79" width="1920" height="1080"/>
    </clipPath>
    <clipPath id="clippath-5">
      <rect class="cls-1" x="-223.85" y="-352.79" width="1920" height="1080"/>
    </clipPath>
    <clipPath id="clippath-6">
      <rect class="cls-1" x="-223.85" y="-352.79" width="1920" height="1080"/>
    </clipPath>
    <clipPath id="clippath-7">
      <rect class="cls-1" x="-223.85" y="-352.79" width="1920" height="1080"/>
    </clipPath>
    <clipPath id="clippath-8">
      <rect class="cls-1" x="-223.85" y="-352.79" width="1920" height="1080"/>
    </clipPath>
    <clipPath id="clippath-9">
      <rect class="cls-1" x="-223.85" y="-352.79" width="1920" height="1080"/>
    </clipPath>
    <clipPath id="clippath-10">
      <rect class="cls-1" x="-223.85" y="-352.79" width="1920" height="1080"/>
    </clipPath>
    <clipPath id="clippath-11">
      <rect class="cls-1" x="-223.85" y="-352.79" width="1920" height="1080"/>
    </clipPath>
    <clipPath id="clippath-12">
      <rect class="cls-1" x="-223.85" y="-352.79" width="1920" height="1080"/>
    </clipPath>
    <clipPath id="clippath-13">
      <rect class="cls-1" x="-223.85" y="-352.79" width="1920" height="1080"/>
    </clipPath>
    <clipPath id="clippath-14">
      <rect class="cls-1" x="-223.85" y="-352.79" width="1920" height="1080"/>
    </clipPath>
    <clipPath id="clippath-15">
      <rect class="cls-1" x="-223.85" y="-352.79" width="1920" height="1080"/>
    </clipPath>
    <clipPath id="clippath-16">
      <rect class="cls-1" x="-223.85" y="-352.79" width="1920" height="1080"/>
    </clipPath>
    <clipPath id="clippath-17">
      <rect class="cls-1" x="-223.85" y="-352.79" width="1920" height="1080"/>
    </clipPath>
    <clipPath id="clippath-18">
      <rect class="cls-1" x="-223.85" y="-352.79" width="1920" height="1080"/>
    </clipPath>
    <clipPath id="clippath-19">
      <rect class="cls-1" x="-223.85" y="-352.79" width="1920" height="1080"/>
    </clipPath>
    <clipPath id="clippath-20">
      <rect class="cls-1" x="-223.85" y="-352.79" width="1920" height="1080"/>
    </clipPath>
    <clipPath id="clippath-21">
      <rect class="cls-1" x="-223.85" y="-352.79" width="1920" height="1080"/>
    </clipPath>
    <clipPath id="clippath-22">
      <rect class="cls-1" x="-223.85" y="-352.79" width="1920" height="1080"/>
    </clipPath>
    <clipPath id="clippath-23">
      <rect class="cls-1" x="-223.85" y="-352.79" width="1920" height="1080"/>
    </clipPath>
    <clipPath id="clippath-24">
      <rect class="cls-1" x="-223.85" y="-352.79" width="1920" height="1080"/>
    </clipPath>
    <clipPath id="clippath-25">
      <rect class="cls-1" x="-223.85" y="-352.79" width="1920" height="1080"/>
    </clipPath>
  </defs>
  <g class="cls-68">
    <path class="cls-5" d="M35.28,302.71c0-15.12,57.58-27.38,128.62-27.38s128.63,12.26,128.63,27.38-57.59,27.37-128.63,27.37-128.62-12.25-128.62-27.37Z"/>
    <path class="cls-2" d="M35.28,302.71c0-15.12,57.58-27.38,128.62-27.38s128.63,12.26,128.63,27.38-57.59,27.37-128.63,27.37-128.62-12.25-128.62-27.37Z"/>
    <g class="cls-26">
      <text class="cls-6" transform="translate(72.8 314.41)"><tspan x="0" y="0">1</tspan><tspan class="cls-52" x="17.95" y="0">9</tspan><tspan class="cls-42" x="35.25" y="0">2.</tspan><tspan class="cls-41" x="62.17" y="0">1</tspan><tspan class="cls-46" x="80.19" y="0">6</tspan><tspan x="97.43" y="0">8.</tspan><tspan class="cls-56" x="124.34" y="0">1</tspan><tspan x="141.68" y="0">.2</tspan></text>
    </g>
    <path class="cls-5" d="M132.03,186.46c0-15.12,49.86-27.38,111.37-27.38s111.38,12.26,111.38,27.38-49.87,27.37-111.38,27.37-111.37-12.25-111.37-27.37Z"/>
    <path class="cls-2" d="M132.03,186.46c0-15.12,49.86-27.38,111.37-27.38s111.38,12.26,111.38,27.38-49.87,27.37-111.38,27.37-111.37-12.25-111.37-27.37Z"/>
    <g class="cls-29">
      <text class="cls-6" transform="translate(167.67 179.01)"><tspan x="0" y="0">1</tspan><tspan class="cls-52" x="17.95" y="0">9</tspan><tspan class="cls-42" x="35.25" y="0">2.</tspan><tspan class="cls-41" x="62.17" y="0">1</tspan><tspan class="cls-46" x="80.19" y="0">6</tspan><tspan x="97.43" y="0">8.</tspan><tspan class="cls-56" x="124.34" y="0">1</tspan><tspan x="141.68" y="0">.</tspan></text>
    </g>
    <g class="cls-27">
      <text class="cls-6" transform="translate(234.25 218.04)"><tspan x="0" y="0">1</tspan></text>
    </g>
    <path class="cls-5" d="M392.28,243.08c0-14.91,61.28-27,136.87-27s136.88,12.09,136.88,27-61.29,27-136.88,27-136.87-12.08-136.87-27Z"/>
    <path class="cls-2" d="M392.28,243.08c0-14.91,61.28-27,136.87-27s136.88,12.09,136.88,27-61.29,27-136.88,27-136.87-12.08-136.87-27Z"/>
    <g class="cls-28">
      <text class="cls-6" transform="translate(435.65 235.41)"><tspan x="0" y="0">1</tspan><tspan class="cls-52" x="17.95" y="0">9</tspan><tspan class="cls-42" x="35.25" y="0">2.</tspan><tspan class="cls-41" x="62.17" y="0">1</tspan><tspan class="cls-46" x="80.19" y="0">6</tspan><tspan x="97.43" y="0">8.</tspan><tspan class="cls-56" x="124.34" y="0">1</tspan><tspan x="141.68" y="0">.25</tspan></text>
    </g>
    <g class="cls-34">
      <text class="cls-6" transform="translate(520 274.43)"><tspan x="0" y="0">4</tspan></text>
    </g>
    <path class="cls-5" d="M792.78,121.21c0-15.12,69.67-27.38,155.62-27.38s155.63,12.26,155.63,27.38-69.68,27.37-155.63,27.37-155.62-12.25-155.62-27.37Z"/>
    <path class="cls-2" d="M792.78,121.21c0-15.12,69.67-27.38,155.62-27.38s155.63,12.26,155.63,27.38-69.68,27.37-155.63,27.37-155.62-12.25-155.62-27.37Z"/>
    <g class="cls-31">
      <text class="cls-6" transform="translate(838.45 132.71)"><tspan x="0" y="0">1</tspan><tspan class="cls-50" x="17.95" y="0">9</tspan><tspan x="35.25" y="0">2.</tspan><tspan class="cls-38" x="62.17" y="0">1</tspan><tspan class="cls-47" x="80.19" y="0">6</tspan><tspan x="97.42" y="0">8.</tspan><tspan class="cls-54" x="124.34" y="0">2</tspan><tspan x="141.68" y="0">.2</tspan><tspan class="cls-37" x="168.6" y="0">5</tspan><tspan x="186.61" y="0">4</tspan></text>
    </g>
    <path class="cls-5" d="M792.78,343.21c0-15.12,59.26-27.38,132.37-27.38s132.38,12.26,132.38,27.38-59.27,27.37-132.38,27.37-132.37-12.25-132.37-27.37Z"/>
    <path class="cls-2" d="M792.78,343.21c0-15.12,59.26-27.38,132.37-27.38s132.38,12.26,132.38,27.38-59.27,27.37-132.38,27.37-132.37-12.25-132.37-27.37Z"/>
    <g class="cls-30">
      <text class="cls-6" transform="translate(832.15 335.89)"><tspan x="0" y="0">1</tspan><tspan class="cls-50" x="17.95" y="0">9</tspan><tspan x="35.25" y="0">2.</tspan><tspan class="cls-38" x="62.17" y="0">1</tspan><tspan class="cls-47" x="80.19" y="0">6</tspan><tspan x="97.42" y="0">8.</tspan><tspan class="cls-54" x="124.34" y="0">3</tspan><tspan x="141.68" y="0">.25</tspan></text>
    </g>
    <g class="cls-33">
      <text class="cls-6" transform="translate(916.47 374.91)"><tspan x="0" y="0">4</tspan></text>
    </g>
    <line class="cls-3" x1="321.78" y1="205.58" x2="431.79" y2="223.38"/>
    <line class="cls-3" x1="292.53" y1="303.05" x2="432.38" y2="262.58"/>
    <line class="cls-3" x1="625.53" y1="223.6" x2="838.15" y2="140.33"/>
    <line class="cls-3" x1="625.53" y1="262.58" x2="792.53" y2="343.71"/>
    <path class="cls-5" d="M1169.28,275.33c0-14.91,51.2-27,114.37-27s114.38,12.09,114.38,27-51.21,27-114.38,27-114.37-12.08-114.37-27Z"/>
    <path class="cls-2" d="M1169.28,275.33c0-14.91,51.2-27,114.37-27s114.38,12.09,114.38,27-51.21,27-114.38,27-114.37-12.08-114.37-27Z"/>
    <g class="cls-32">
      <text class="cls-6" transform="translate(1208.18 267.73)"><tspan x="0" y="0">1</tspan><tspan class="cls-50" x="17.95" y="0">9</tspan><tspan x="35.25" y="0">2.</tspan><tspan class="cls-38" x="62.17" y="0">1</tspan><tspan class="cls-47" x="80.19" y="0">6</tspan><tspan x="97.42" y="0">8.</tspan><tspan class="cls-54" x="124.34" y="0">3</tspan><tspan x="141.68" y="0">.</tspan></text>
    </g>
    <g class="cls-15">
      <text class="cls-7" transform="translate(1274.75 306.79)"><tspan x="0" y="0">1</tspan></text>
    </g>
    <path class="cls-5" d="M1098.78,415.96c0-15.12,51.03-27.38,114-27.38s114,12.26,114,27.38-51.04,27.37-114,27.37-114-12.25-114-27.37Z"/>
    <path class="cls-2" d="M1098.78,415.96c0-15.12,51.03-27.38,114-27.38s114,12.26,114,27.38-51.04,27.37-114,27.37-114-12.25-114-27.37Z"/>
    <g class="cls-12">
      <text class="cls-6" transform="translate(1137.35 408.29)"><tspan x="0" y="0">1</tspan><tspan class="cls-50" x="17.95" y="0">9</tspan><tspan x="35.25" y="0">2.</tspan><tspan class="cls-38" x="62.17" y="0">1</tspan><tspan class="cls-47" x="80.19" y="0">6</tspan><tspan x="97.42" y="0">8.</tspan><tspan class="cls-54" x="124.34" y="0">3</tspan><tspan x="141.68" y="0">.</tspan></text>
    </g>
    <g class="cls-19">
      <text class="cls-7" transform="translate(1203.92 447.33)"><tspan x="0" y="0">2</tspan></text>
    </g>
    <line class="cls-3" x1="1168.92" y1="275.33" x2="1057.53" y2="343.42"/>
    <line class="cls-3" x1="1019.28" y1="362.33" x2="1132.14" y2="396.14"/>
    <path class="cls-5" d="M87.03,46.59c0-7.87,6.38-14.26,14.25-14.26h441.74c7.87,0,14.26,6.39,14.26,14.26v56.99c0,7.87-6.39,14.25-14.26,14.25h-260.06l-61.78,33.11-55.78-33.11h-64.12c-7.87,0-14.25-6.38-14.25-14.25v-56.99Z"/>
    <path class="cls-2" d="M87.03,46.59c0-7.87,6.38-14.26,14.25-14.26h441.74c7.87,0,14.26,6.39,14.26,14.26v56.99c0,7.87-6.39,14.25-14.26,14.25h-260.06l-61.78,33.11-55.78-33.11h-64.12c-7.87,0-14.25-6.38-14.25-14.25v-56.99Z"/>
    <g class="cls-17">
      <text class="cls-8" transform="translate(145.53 69.51)"><tspan x="0" y="0">とり</tspan><tspan class="cls-57" x="64.55" y="0">あ</tspan><tspan class="cls-56" x="96.41" y="0">え</tspan><tspan class="cls-60" x="128.07" y="0">ず</tspan><tspan x="160.21" y="0">全</tspan><tspan class="cls-48" x="192.49" y="0">部</tspan><tspan x="223.99" y="0">の</tspan><tspan class="cls-67" x="256.26" y="0">デ</tspan><tspan class="cls-66" x="288.28" y="0">ー</tspan><tspan x="320.33" y="0">タは</tspan></text>
    </g>
    <g class="cls-18">
      <text class="cls-6" transform="translate(103.2 106.29)"><tspan x="0" y="0">1</tspan><tspan class="cls-52" x="17.95" y="0">9</tspan><tspan class="cls-42" x="35.25" y="0">2.</tspan><tspan class="cls-41" x="62.17" y="0">1</tspan><tspan class="cls-46" x="80.19" y="0">6</tspan><tspan x="97.43" y="0">8.</tspan><tspan class="cls-56" x="124.34" y="0">1</tspan><tspan x="141.68" y="0">.2</tspan><tspan class="cls-41" x="168.6" y="0">5</tspan><tspan x="186.61" y="0">4</tspan></text>
    </g>
    <g class="cls-16">
      <text class="cls-8" transform="translate(307.4 106.29)"><tspan x="0" y="0">宛</tspan><tspan class="cls-52" x="32.27" y="0">て</tspan><tspan class="cls-61" x="63.9" y="0">に</tspan><tspan x="95.82" y="0">送れば</tspan></text>
    </g>
    <g class="cls-13">
      <text class="cls-6" transform="translate(494.48 106.29)"><tspan class="cls-63" x="0" y="0">O</tspan><tspan x="24.78" y="0">K</tspan></text>
    </g>
    <path class="cls-5" d="M199.53,367.59c0-7.87,6.38-14.26,14.25-14.26h260.06l44.28-72.72,73.28,72.72h64.12c7.87,0,14.26,6.39,14.26,14.26h0s0,21.37,0,21.37v35.62c0,7.87-6.39,14.25-14.26,14.25H213.78c-7.87,0-14.25-6.38-14.25-14.25v-57h0Z"/>
    <path class="cls-2" d="M199.53,367.59c0-7.87,6.38-14.26,14.25-14.26h260.06l44.28-72.72,73.28,72.72h64.12c7.87,0,14.26,6.39,14.26,14.26h0s0,21.37,0,21.37v35.62c0,7.87-6.39,14.25-14.26,14.25H213.78c-7.87,0-14.25-6.38-14.25-14.25v-57h0Z"/>
    <g class="cls-10">
      <text class="cls-7" transform="translate(252.17 389.46)"><tspan x="0" y="0">1</tspan><tspan class="cls-55" x="17.94" y="0">9</tspan><tspan class="cls-4" x="35.26" y="0">2</tspan><tspan class="cls-40" x="53.19" y="0">.</tspan><tspan class="cls-4" x="62.22" y="0">1</tspan><tspan class="cls-55" x="80.16" y="0">6</tspan><tspan x="97.48" y="0">8</tspan><tspan class="cls-39" x="115.41" y="0">.</tspan><tspan class="cls-49" x="124.44" y="0">3</tspan><tspan x="141.7" y="0">.</tspan></text>
    </g>
    <g class="cls-14">
      <text class="cls-9" transform="translate(403.1 389.46)"><tspan x="0" y="0">○</tspan><tspan class="cls-45" x="32.25" y="0">○</tspan><tspan x="63.79" y="0">の</tspan><tspan class="cls-59" x="96.04" y="0">デ</tspan><tspan class="cls-58" x="128.13" y="0">ー</tspan><tspan x="160.19" y="0">タは</tspan></text>
    </g>
    <g class="cls-11">
      <text class="cls-7" transform="translate(215.9 427.73)"><tspan x="0" y="0">1</tspan><tspan class="cls-53" x="17.94" y="0">9</tspan><tspan class="cls-4" x="35.32" y="0">2</tspan><tspan class="cls-36" x="53.26" y="0">.</tspan><tspan x="62.32" y="0">1</tspan><tspan class="cls-53" x="80.25" y="0">6</tspan><tspan class="cls-4" x="97.64" y="0">8</tspan><tspan class="cls-36" x="115.58" y="0">.</tspan><tspan class="cls-51" x="124.63" y="0">3</tspan><tspan class="cls-43" x="141.92" y="0">.</tspan><tspan class="cls-39" x="150.88" y="0">2</tspan><tspan class="cls-4" x="168.88" y="0">54</tspan></text>
    </g>
    <g class="cls-20">
      <text class="cls-9" transform="translate(420.1 427.73)"><tspan x="0" y="0">宛</tspan><tspan class="cls-53" x="32.25" y="0">て</tspan><tspan class="cls-65" x="63.95" y="0">に</tspan><tspan x="95.88" y="0">送れば</tspan></text>
    </g>
    <g class="cls-21">
      <text class="cls-7" transform="translate(607.18 427.73)"><tspan class="cls-62" x="0" y="0">O</tspan><tspan class="cls-4" x="24.79" y="0">K</tspan></text>
    </g>
    <path class="cls-5" d="M685.53,230.71c0-3.94,3.18-7.13,7.12-7.13h449.25c3.94,0,7.13,3.19,7.13,7.13v28.5c0,3.94-3.19,7.12-7.13,7.12h-263.25l-3.84,18.8-112.03-18.8h-70.13c-3.94,0-7.12-3.18-7.12-7.12v-28.5Z"/>
    <path class="cls-2" d="M685.53,230.71c0-3.94,3.18-7.13,7.12-7.13h449.25c3.94,0,7.13,3.19,7.13,7.13v28.5c0,3.94-3.19,7.12-7.13,7.12h-263.25l-3.84,18.8-112.03-18.8h-70.13c-3.94,0-7.12-3.18-7.12-7.12v-28.5Z"/>
    <g class="cls-22">
      <text class="cls-6" transform="translate(714.1 257.08)"><tspan x="0" y="0">1</tspan><tspan class="cls-52" x="17.95" y="0">9</tspan><tspan x="35.25" y="0">2.</tspan><tspan class="cls-38" x="62.17" y="0">1</tspan><tspan class="cls-47" x="80.19" y="0">6</tspan><tspan x="97.42" y="0">8.</tspan><tspan class="cls-54" x="124.34" y="0">3</tspan><tspan x="141.68" y="0">.</tspan></text>
    </g>
    <g class="cls-23">
      <text class="cls-6" transform="translate(865.03 257.08)"><tspan x="0" y="0">1</tspan></text>
    </g>
    <g class="cls-24">
      <text class="cls-8" transform="translate(882.78 257.08)"><tspan x="0" y="0">は</tspan><tspan class="cls-47" x="32.28" y="0">直</tspan><tspan x="63.84" y="0">接渡</tspan><tspan class="cls-46" x="128.39" y="0">せ</tspan><tspan class="cls-35" x="159.96" y="0">ば</tspan></text>
    </g>
    <g class="cls-25">
      <text class="cls-6" transform="translate(1074.85 257.08)"><tspan class="cls-64" x="0" y="0">O</tspan><tspan class="cls-35" x="24.78" y="0">K</tspan></text>
    </g>
    <path class="cls-44" d="M1157.45,283.2l25.71,3.75-15.92,20.54c-1.01,1.31-2.9,1.55-4.21.53-1.31-1.02-1.54-2.9-.53-4.21l12.77-16.47,1.94,4.81-20.62-3.01c-1.64-.24-2.78-1.76-2.54-3.4.24-1.64,1.76-2.78,3.4-2.54ZM334.7,209.77l.37.35.53.39.97.69,1.38.94,1.75,1.14,2.09,1.31,2.45,1.5,2.79,1.66,3.12,1.82,3.47,1.95,3.79,2.08,4.12,2.22,4.44,2.32,4.76,2.43,5.08,2.52,5.39,2.61,5.71,2.68,6.01,2.75,6.32,2.8,6.61,2.85,6.91,2.89,7.2,2.91,7.5,2.93,7.78,2.93,8.06,2.94,8.35,2.92,8.63,2.9,8.89,2.87,9.17,2.83,9.43,2.79,9.69,2.72,9.96,2.65,10.28,2.71,10.61,2.88,10.9,3.03,11.22,3.17,11.51,3.28,11.82,3.39,12.11,3.48,12.4,3.55,12.7,3.62,13,3.66,13.28,3.7,13.58,3.71,13.86,3.72,14.15,3.7,14.44,3.69,14.72,3.64,15,3.58,15.28,3.51,15.56,3.44,15.84,3.34,16.11,3.22,16.4,3.1,16.66,2.95,16.93,2.8,17.2,2.63,17.47,2.44,17.74,2.24,18,2.03,18.26,1.8,18.53,1.56,18.79,1.3,19.04,1.03-.53.02.3-.03-.46.09.57-.16.66-.25,1.02-.39,1.29-.53,1.55-.65,1.76-.76,2.03-.88,2.21-.98,2.43-1.08,2.63-1.18,2.8-1.27,2.99-1.36,3.16-1.44,3.31-1.51,3.46-1.59,3.61-1.67,3.74-1.72,3.86-1.79,3.97-1.84,8.25-3.84,8.62-4.02,8.89-4.15,9.1-4.27,9.25-4.32,9.32-4.38,9.32-4.37,9.25-4.33,9.11-4.28,8.89-4.17,8.61-4.03,8.27-3.87,3.99-1.86,3.86-1.8,3.74-1.75,3.61-1.68,3.47-1.61,3.32-1.54,3.16-1.46,3-1.38,2.82-1.3,2.64-1.2,2.44-1.11,2.25-1.02,2.04-.91,1.81-.8.24-.11,2.4,5.5-.2.09-1.8.8-2.02.9-2.23,1.01-2.44,1.11-2.62,1.2-2.82,1.29-2.99,1.37-3.16,1.47-3.31,1.53-3.47,1.61-3.61,1.68-3.73,1.74-3.87,1.81-3.98,1.85-8.26,3.87-8.61,4.03-8.89,4.17-9.12,4.28-9.24,4.33-9.32,4.38-9.32,4.37-9.25,4.33-9.11,4.27-8.9,4.15-8.61,4.01-8.26,3.85-3.98,1.85-3.87,1.79-3.74,1.72-3.61,1.67-3.47,1.59-3.32,1.53-3.17,1.44-2.99,1.35-2.83,1.29-2.64,1.17-2.44,1.1-2.26,1-2.02.87-1.84.8-1.6.67-1.39.57-1.16.44-1.02.36-.57.16c-.15.05-.3.08-.46.1l-.3.04c-.18.02-.35.03-.53.02l-19.14-1.04-18.87-1.31-18.61-1.56-18.35-1.82-18.08-2.03-17.81-2.26-17.56-2.45-17.27-2.65-17-2.81-16.72-2.96-16.46-3.11-16.18-3.23-15.89-3.35-15.62-3.45-15.33-3.52-15.05-3.6-14.75-3.65-14.48-3.7-14.19-3.71-13.89-3.73-13.6-3.71-13.3-3.7-13.01-3.67-12.71-3.62-12.41-3.55-12.11-3.48-11.8-3.39-11.5-3.28-11.19-3.16-10.87-3.02-10.57-2.86-10.29-2.72-10.04-2.67-9.77-2.75-9.5-2.8-9.24-2.86-8.97-2.89-8.69-2.93-8.42-2.94-8.12-2.96-7.85-2.96-7.56-2.96-7.28-2.94-6.96-2.91-6.68-2.88-6.37-2.82-6.08-2.78-5.75-2.71-5.46-2.63-5.13-2.55-4.82-2.46-4.5-2.36-4.18-2.24-3.84-2.11-3.53-2-3.18-1.84-2.85-1.7-2.51-1.53-2.19-1.38-1.82-1.19-1.49-1.02-1.21-.85-.93-.75-.36-.34,4.1-4.38Z"/>
  </g>
</svg>