<?xml version="1.0" encoding="UTF-8"?>
<svg id="_レイヤー_1" data-name="レイヤー 1" xmlns="http://www.w3.org/2000/svg" viewBox="0 0 864.47 343.41">
  <defs>
    <style>
      .cls-1 {
        stroke-dasharray: 11.93 11.93;
      }

      .cls-1, .cls-2, .cls-3, .cls-4, .cls-5, .cls-6 {
        fill: none;
        stroke: #171c1c;
        stroke-miterlimit: 10;
      }

      .cls-7 {
        fill: #ffe100;
      }

      .cls-2 {
        stroke-dasharray: 11.59 11.59;
      }

      .cls-8 {
        fill: #171c1c;
      }

      .cls-9 {
        fill: #fff;
      }

      .cls-3 {
        stroke-dasharray: 12.13 12.13;
      }

      .cls-10 {
        fill: #55b032;
      }

      .cls-4 {
        stroke-dasharray: 12.12 12.12;
      }

      .cls-5 {
        stroke-dasharray: 12.22 12.22;
      }

      .cls-11 {
        font-family: PTMono-Regular, 'PT Mono';
        font-size: 48px;
      }

      .cls-6 {
        stroke-width: 5px;
      }

      .cls-12 {
        font-family: PA1GothicStd-Regular-83pv-RKSJ-H, 'A P-OTF A1Gothic Std';
        font-size: 24px;
      }

      .cls-13 {
        fill: #1fb8de;
      }

      .cls-14 {
        fill: #e60012;
      }
    </style>
  </defs>
  <g>
    <path class="cls-14" d="M204.51,139.31h-7.8v-3.54h11.98v7.2c0,6.35-4.78,10.71-11.6,10.71-7.95,0-12.54-5.34-12.54-14.6v-6.02c0-9.26,4.59-14.6,12.54-14.6,7.03,0,11.44,4.29,11.6,11.3h-4.17c-.19-4.41-3.19-7.38-7.5-7.38-5.46,0-8.3,3.68-8.3,10.69v6.02c0,7.01,2.86,10.69,8.32,10.69,4.62,0,7.48-2.72,7.48-7.15v-3.3Z"/>
    <path class="cls-14" d="M236.67,152.97h-19.97v-33.82h19.97v3.8h-15.82v10.97h14.95v3.63h-14.95v11.62h15.82v3.8Z"/>
    <path class="cls-14" d="M253.76,152.97v-30.02h-10.22v-3.8h24.56v3.8h-10.22v30.02h-4.12Z"/>
  </g>
  <path class="cls-7" d="M304.97,156.18l16.48-40.24h3.91l-16.5,40.24h-3.89Z"/>
  <g>
    <path class="cls-10" d="M548.29,148.77c0-2.37,1.92-4.31,4.24-4.31s4.24,1.95,4.24,4.31-1.92,4.34-4.24,4.34-4.24-1.95-4.24-4.34Z"/>
    <path class="cls-10" d="M381.65,152.97v-15.38h-14.3v15.38h-4.1v-33.82h4.1v14.65h14.3v-14.65h4.1v33.82h-4.1Z"/>
    <path class="cls-10" d="M402.12,152.97v-30.02h-10.22v-3.8h24.56v3.8h-10.22v30.02h-4.12Z"/>
    <path class="cls-10" d="M431.79,152.97v-30.02h-10.22v-3.8h24.56v3.8h-10.22v30.02h-4.12Z"/>
    <path class="cls-10" d="M464.58,119.15c6.56,0,10.85,4.29,10.85,10.85s-4.34,10.83-10.95,10.83h-7.01v12.14h-4.15v-33.82h11.25ZM457.47,137.15h6.07c4.92,0,7.69-2.55,7.69-7.15s-2.77-7.17-7.69-7.17h-6.07v14.32Z"/>
    <path class="cls-10" d="M483,156.18l16.48-40.24h3.91l-16.5,40.24h-3.89Z"/>
    <path class="cls-10" d="M512.06,152.97v-3.63h9.98v-25.5h-.38l-9.68,6.26v-4.41l10.08-6.54h4.05v30.19h9.52v3.63h-23.58Z"/>
    <path class="cls-10" d="M571.4,152.97v-3.63h9.98v-25.5h-.38l-9.68,6.26v-4.41l10.08-6.54h4.05v30.19h9.52v3.63h-23.58Z"/>
  </g>
  <g>
    <path class="cls-13" d="M203.62,236.97v-15.38h-14.3v15.38h-4.1v-33.82h4.1v14.65h14.3v-14.65h4.1v33.82h-4.1Z"/>
    <path class="cls-13" d="M215.13,226.19v-3.84c0-6.87,4.29-11.25,11.02-11.25s11.02,4.38,11.02,11.25v3.84c0,6.87-4.29,11.25-11.02,11.25s-11.02-4.38-11.02-11.25ZM219.07,222.7v3.12c0,5.02,2.72,8.09,7.08,8.09s7.08-3.07,7.08-8.09v-3.12c0-4.99-2.72-8.09-7.08-8.09s-7.08,3.09-7.08,8.09Z"/>
    <path class="cls-13" d="M255.91,211.05c5.3,0,8.88,2.65,9.35,6.89h-3.84c-.47-2.23-2.6-3.59-5.58-3.59-3.23,0-5.32,1.5-5.32,3.82,0,1.95,1.31,3.05,4.5,3.75l3.59.82c4.95,1.12,7.2,3.28,7.2,6.96,0,4.69-3.91,7.73-9.94,7.73s-9.59-2.7-10.03-7.05h4.05c.59,2.34,2.84,3.7,6.12,3.7,3.47,0,5.67-1.57,5.67-4.01,0-2.02-1.24-3.09-4.48-3.82l-3.77-.87c-4.59-1.05-6.87-3.38-6.87-6.98,0-4.41,3.75-7.36,9.35-7.36Z"/>
    <path class="cls-13" d="M285.09,204.72v6.89h10.31v3.4h-10.27v14.34c0,2.77,1.95,4.27,5.53,4.27,1.43,0,3.98-.07,4.66-.14v3.38c-.63.12-3.73.23-4.95.23-6.3,0-9.23-2.39-9.23-7.69v-14.39h-6.77v-3.4h6.77v-6.89h3.94Z"/>
    <path class="cls-13" d="M310.92,214.77c0-2.37,1.92-4.34,4.24-4.34s4.24,1.97,4.24,4.34-1.92,4.34-4.24,4.34-4.24-1.97-4.24-4.34ZM310.92,232.77c0-2.37,1.92-4.31,4.24-4.31s4.24,1.95,4.24,4.31-1.92,4.34-4.24,4.34-4.24-1.95-4.24-4.34Z"/>
    <path class="cls-13" d="M385.24,230.41c-.77,4.2-4.8,7.03-10.15,7.03-6.98,0-11.04-4.2-11.04-11.44v-3.82c0-6.7,4.29-11.11,10.76-11.11s10.5,4.38,10.5,11.74v2.48h-17.32v1.03c0,4.66,2.77,7.66,7.1,7.66,3.21,0,5.58-1.36,6.28-3.59h3.87ZM367.99,222.27h13.38c0-4.85-2.48-7.78-6.59-7.78s-6.8,2.91-6.8,7.78Z"/>
    <path class="cls-13" d="M403.97,227.17l-6.42,9.8h-4.41l8.72-12.73-8.79-12.7h4.71l6.33,9.63h.33l6.3-9.63h4.48l-8.7,12.54,8.77,12.89h-4.62l-6.4-9.8h-.3Z"/>
    <path class="cls-13" d="M423.19,229.75c0-4.5,3.23-7.17,9.02-7.48l6.98-.35v-2.3c0-3.19-1.95-4.95-5.48-4.95-2.93,0-4.99,1.24-5.65,3.42h-3.91c.47-4.08,4.41-6.87,9.61-6.87,5.98,0,9.4,3.05,9.4,8.34v17.41h-3.8v-3.82h-.4c-1.22,2.72-3.98,4.24-7.69,4.24-4.85,0-8.09-3.05-8.09-7.66ZM439.19,227.97v-3l-6.54.3c-3.56.16-5.44,1.69-5.44,4.34s1.99,4.31,5.2,4.31c3.84,0,6.77-2.55,6.77-5.95Z"/>
    <path class="cls-13" d="M475.78,236.97h-3.59v-17.55c0-3.09-1.12-4.71-3.26-4.71s-3.59,1.95-3.59,5.11v17.16h-3.56v-17.58c0-3.07-1.12-4.69-3.28-4.69s-3.66,1.95-3.66,5.11v17.16h-3.59v-25.43h3.56v3.59h.42c.63-2.55,2.46-4.05,4.85-4.05s4.08,1.48,4.62,3.98h.42c.66-2.44,2.7-3.98,5.25-3.98,3.54,0,5.39,2.46,5.39,7.17v18.73Z"/>
    <path class="cls-13" d="M504.51,221.9v4.73c0,6.52-3.84,10.76-9.73,10.76-3.68,0-6.38-1.57-7.48-4.36h-.45v12.52h-4.05v-34.01h3.94v3.89h.42c1.34-2.81,3.98-4.31,7.62-4.31,5.88,0,9.73,4.24,9.73,10.78ZM486.77,222.46v3.66c0,4.71,2.67,7.71,6.87,7.71s6.87-3.02,6.87-7.71v-3.66c0-4.69-2.67-7.69-6.87-7.69s-6.87,3-6.87,7.69Z"/>
    <path class="cls-13" d="M512.9,236.97v-3.3h8.7v-28.8h-8.62v-3.3h12.61v32.11h8.39v3.3h-21.07Z"/>
    <path class="cls-13" d="M563.27,230.41c-.77,4.2-4.8,7.03-10.15,7.03-6.98,0-11.04-4.2-11.04-11.44v-3.82c0-6.7,4.29-11.11,10.76-11.11s10.5,4.38,10.5,11.74v2.48h-17.32v1.03c0,4.66,2.77,7.66,7.1,7.66,3.21,0,5.58-1.36,6.28-3.59h3.87ZM546.02,222.27h13.38c0-4.85-2.48-7.78-6.59-7.78s-6.8,2.91-6.8,7.78Z"/>
    <path class="cls-13" d="M577.97,232.77c0-2.37,1.92-4.31,4.24-4.31s4.24,1.95,4.24,4.31-1.92,4.34-4.24,4.34-4.24-1.95-4.24-4.34Z"/>
    <path class="cls-13" d="M618.54,219.46c-.49-2.98-2.98-4.85-6.26-4.85-4.43,0-6.89,3.02-6.89,8.48v2.3c0,5.46,2.46,8.46,6.89,8.46,3.28,0,5.77-1.85,6.26-4.76h3.94c-.63,5.18-4.5,8.34-10.12,8.34-6.91,0-10.95-4.24-10.95-11.53v-3.33c0-7.29,4.03-11.53,10.95-11.53,5.62,0,9.47,3.19,10.12,8.41h-3.94Z"/>
    <path class="cls-13" d="M630.54,226.19v-3.84c0-6.87,4.29-11.25,11.02-11.25s11.02,4.38,11.02,11.25v3.84c0,6.87-4.29,11.25-11.02,11.25s-11.02-4.38-11.02-11.25ZM634.47,222.7v3.12c0,5.02,2.72,8.09,7.08,8.09s7.08-3.07,7.08-8.09v-3.12c0-4.99-2.72-8.09-7.08-8.09s-7.08,3.09-7.08,8.09Z"/>
    <path class="cls-13" d="M683.48,236.97h-3.59v-17.55c0-3.09-1.12-4.71-3.26-4.71s-3.59,1.95-3.59,5.11v17.16h-3.56v-17.58c0-3.07-1.12-4.69-3.28-4.69s-3.66,1.95-3.66,5.11v17.16h-3.59v-25.43h3.56v3.59h.42c.63-2.55,2.46-4.05,4.85-4.05s4.08,1.48,4.62,3.98h.42c.66-2.44,2.7-3.98,5.25-3.98,3.54,0,5.39,2.46,5.39,7.17v18.73Z"/>
  </g>
  <g>
    <line class="cls-6" x1="108.53" y1="92.86" x2="134.37" y2="105.24"/>
    <g>
      <path class="cls-8" d="M129.16,113.93c1.2.52,2.87,1.29,5.31,2.57,1.13.6,1.63.25,2.98-1.58.59-.8,1.03,0,2.11.18,1.02.07,2.17-1.91,2.17-1.91.23-.46.49-.35.6-.21,2.69,3.04,7.29,2.59,7.19,3-.2,2,1.57,2.69,1.99,2.35-.41.75.46,1.94.91,1.94,1.63-.07,1.9-.55,2.95-.44,2,.08,2.01-.87,3.64-.19,1.19.49,1.66.48,2.05.37,1.76-.6,1.47-2.66,1-3.53.86-1.09-.2-3.43-.12-4.64.55.25,1.44.52,2.92.7.78.09.46.35,1.68.79,1.64.61,2.32.74,2.93.75.35,0,1.86.77,2.78.87,2.69.84,3.38-1.61,3.42-1.86.02-.1,0-.11-.47-.34-.66-.26-1.63-1.13-2.64-1.43-.38-.13-.87-.56-1.81-.87-1.01-.72-1.95-.81-3.01-1.88-.16-.15-.21.05-.62-.19-.22-.13-.1-.3-.81-.54-.81-.28-1.74-.82-2.67-1.27-.93-.45-1.56-.98-3.73-2.26-.89-.53-1.42-1.29-2.25-1.28-1.28.02-5.62-.13-10.38-.07-.1,0-.53.03-.5-.58-.05-1.01-.41-.89-1.95-1.57-1.06-.56.14-1.01-1.06-1.55-1.85-.84-2.65-1.03-5.3-2.37-1.08-.54-1.35-.72-1.74.03l-7.8,16.29c-.12.25-.13.55.21.72Z"/>
      <path class="cls-9" d="M174.93,113.28c-.28.75-1.53-.06-2.01-.43-.29-.21-.28-.83.09-.79l1.88,1.12s.05.08.04.09Z"/>
      <path class="cls-9" d="M160.29,116.6c-.83-.25-.91.1-1.3-.16-.51-.34.08-.31-1.81-1.16-.54-.26-.82-.44-1.29-.38-.11-.24-.44-.64-.86-.53-.61-.46-.33-.43-1.61-.71-1.72-.39-1.72-1.17-2.27-1.86-.15-.18-.24-.31-.65-.43-3.02-1.02-1.78-.44-5.62-2.57-1.25-.92-1.42-1.91-.48-3.74,1.12-2.05,1.43-1.54,2.83-1.49,5.69.16,9.69-.12,10.87.56,3.44,1.71,2.51,2.04,7.14,4.09,1.54.51,1.13,1.24,1.72,1.41.52-.03.29-.41,1.62.39,2.72,1.62,3.52,1.41,3.56,1.98.06.77-.13,1.14,1.79,1.87.16.06.21.08.3.11.25.05.2.2-.1.26-.25.05-2.1.06-3.72-1.06-.92-.64-.59,0-2.24-.79-.7-.4-1.15-.61-1.36-.77-.86-.07-2.27-.72-2.67-1.05-.49-.41-.66-.71-1.29-.68-.63.04-1.9-.11-3.43-1.09-1.79-1.14-1.52-1.46-1.78-1.41-.6.12,0,1.18-1.28,1.45-.66.14-.47-1.59-.95-1.79-.3-.1-.48.14-.5.52,0,.18.16,1.29-.48,1.41-1.04.2-1.61-2.16-3.01-1.97-.34.07-.2.47.11.58.54.18,1.17,1.1,1.39,1.58.27.66,1.31,1.96,1.72,2.41,1.42,1.57,2.27,1.31,2.37,1.91.11.47.9.22,1.58.42,1.28.37,3.53,2.65,2.98,3.13-.19.15-.37.05-.59-.12-.23-.16-.33-.21-.69-.32Z"/>
      <path class="cls-9" d="M158.93,117.74c.56-.46.62-.52,1.25-.37.55.13,1.8,1.25,1.31,1.77-.24.12-.85-.16-1.28-.25-.45-.1-1.79-.56-1.28-1.14Z"/>
      <path class="cls-9" d="M138.82,114c.6.25.83-.07,1.11-.41.39-.48,1.07-2.94,2.39-5.81,1.32-2.87,1.8-3.65,2.68-5.12.21-.36.75-.69.24-.97-1.65-.91-2.11-1.29-3.02-.09-1.06,1.41-4.02,7.46-5.14,10.85.02.32-.56.65,1.74,1.55Z"/>
    </g>
  </g>
  <g>
    <line class="cls-6" x1="288.98" y1="48.38" x2="293.21" y2="70.69"/>
    <g>
      <path class="cls-8" d="M283.12,71.64c.29,1.28.66,3.07,1.08,5.8.19,1.27.76,1.46,3.04,1.47.99,0,.62.83,1.11,1.81.55.87,2.83.62,2.83.62.51-.09.57.18.53.36-.86,3.97,2.23,7.41,1.85,7.57-1.73,1.03-1.24,2.85-.71,3-.85.11-1.29,1.52-1.02,1.88,1.02,1.28,1.57,1.2,2.1,2.12,1.12,1.65,1.89,1.11,2.31,2.82.31,1.25.59,1.62.92,1.87,1.53,1.06,3.02-.39,3.44-1.29,1.39.04,2.64-2.19,3.67-2.84.12.59.43,1.47,1.17,2.77.39.68-.01.58.36,1.82.48,1.69.78,2.31,1.13,2.8.21.29.48,1.95.95,2.76.91,2.66,3.3,1.77,3.52,1.66.09-.04.09-.07,0-.58-.18-.68-.06-1.99-.41-2.97-.12-.38-.07-1.04-.37-1.97-.02-1.24-.5-2.05-.27-3.54.02-.22-.17-.14-.21-.61-.02-.25.18-.26-.04-.97-.25-.81-.37-1.89-.56-2.9-.19-1.01-.14-1.84-.39-4.35-.1-1.03.2-1.91-.31-2.57-.77-1.02-3.22-4.6-6.09-8.4-.06-.08-.34-.41.17-.75.78-.64.48-.86.11-2.5-.18-1.19.9-.49.62-1.78-.42-1.99-.74-2.74-1.23-5.67-.2-1.19-.22-1.52-1.06-1.38l-17.75,3.36c-.27.05-.52.23-.45.59Z"/>
      <path class="cls-9" d="M310.76,108.13c-.77.22-.85-1.27-.85-1.87,0-.36.5-.72.69-.4l.21,2.18s-.04.09-.05.09Z"/>
      <path class="cls-9" d="M299.42,98.3c-.29-.82-.62-.67-.64-1.14-.03-.61.3-.12-.14-2.15-.11-.59-.13-.92-.46-1.27.13-.23.26-.74-.09-1,0-.77.14-.52-.38-1.72-.7-1.61-.08-2.08.16-2.93.06-.23.1-.38-.04-.78-.97-3.04-.7-1.69-1.26-6.05,0-1.55.69-2.28,2.73-2.6,2.32-.31,2.09.24,2.87,1.4,3.24,4.68,5.83,7.74,5.99,9.09.67,3.79-.16,3.23.94,8.18.5,1.54-.32,1.65-.12,2.22.33.4.5-.01.65,1.54.3,3.15.95,3.67.51,4.04-.59.5-1,.57-.45,2.55.04.16.06.21.09.31.11.24-.04.28-.27.07-.19-.17-1.29-1.65-1.35-3.63-.03-1.12-.35-.47-.69-2.27-.1-.8-.19-1.29-.19-1.55-.45-.73-.76-2.26-.73-2.78.04-.63.18-.95-.22-1.44-.4-.48-1.03-1.59-1.16-3.41-.15-2.12.28-2.08.08-2.26-.46-.41-.95.7-1.92-.17-.5-.45,1-1.32.88-1.83-.1-.3-.4-.31-.71-.09-.15.1-.94.89-1.42.45-.78-.72.79-2.58-.2-3.59-.26-.23-.5.12-.4.43.17.55-.19,1.6-.46,2.05-.37.61-.8,2.22-.92,2.81-.42,2.07.29,2.6-.14,3.04-.31.37.36.86.6,1.52.46,1.25-.05,4.42-.75,4.26-.24-.07-.26-.27-.26-.55,0-.29-.02-.39-.15-.75Z"/>
      <path class="cls-9" d="M297.69,97.88c.7.18.79.19,1.04.79.22.52.06,2.19-.65,2.1-.24-.12-.38-.78-.55-1.18-.19-.42-.61-1.78.16-1.71Z"/>
      <path class="cls-9" d="M288.79,79.46c.15.63.55.63.98.65.62.03,3-.88,6.1-1.52,3.1-.64,4.01-.71,5.71-.88.42-.04,1,.19.92-.38-.25-1.87-.21-2.46-1.72-2.49-1.77-.02-8.39,1.18-11.78,2.29-.25.2-.86-.07-.22,2.32Z"/>
    </g>
  </g>
  <g>
    <line class="cls-6" x1="514.9" y1="79.76" x2="532.36" y2="54.47"/>
    <g>
      <path class="cls-8" d="M523.74,84.71c-.78,1.05-1.85,2.54-3.33,4.87-.69,1.08-1.29,1.03-3.38.11-.91-.4-.9.51-1.75,1.2-.85.57-2.83-.58-2.83-.58-.43-.28-.6-.06-.63.11-.82,3.98-5.04,5.87-4.76,6.17,1.16,1.64-.03,3.11-.56,3.03.73.44.57,1.92.17,2.13-1.45.75-1.92.46-2.78,1.09-1.69,1.06-2.18.25-3.26,1.64-.78,1.02-1.2,1.24-1.6,1.34-1.83.35-2.6-1.58-2.62-2.57-1.29-.52-1.53-3.07-2.2-4.09-.35.49-.99,1.17-2.19,2.06-.63.46-.22.53-1.07,1.52-1.12,1.35-1.65,1.79-2.17,2.1-.31.18-1.23,1.59-1.98,2.14-1.92,2.07-3.73.28-3.89.09-.07-.08-.05-.1.24-.53.44-.55.86-1.79,1.58-2.55.27-.3.48-.92,1.14-1.65.52-1.13,1.29-1.68,1.68-3.13.07-.21.21-.06.44-.47.12-.22-.06-.31.43-.87.56-.64,1.1-1.58,1.69-2.43.59-.85.87-1.63,2.12-3.81.51-.9.59-1.82,1.32-2.23,1.12-.62,4.81-2.9,8.97-5.21.09-.05.48-.24.15-.75-.46-.9-.09-.98.91-2.33.64-1.02-.62-.81.15-1.88,1.19-1.65,1.78-2.21,3.42-4.69.67-1.01.82-1.3,1.53-.83l14.86,10.27c.23.15.39.42.17.73Z"/>
      <path class="cls-9" d="M483.68,106.87c.62.51,1.3-.81,1.53-1.37.14-.33-.16-.86-.47-.64l-1.08,1.91s0,.1.01.1Z"/>
      <path class="cls-9" d="M498.04,102.48c.59-.63.84-.37,1.05-.78.27-.55-.22-.23,1-1.91.34-.49.49-.79.93-.97-.02-.26.06-.78.49-.88.3-.7.08-.54,1.04-1.42,1.3-1.19.91-1.87,1.04-2.75.04-.23.06-.39.35-.7,2.11-2.39,1.33-1.27,3.6-5.03.63-1.41.29-2.36-1.44-3.48-1.99-1.22-2.01-.63-3.19.11-4.85,2.96-8.47,4.71-9.16,5.88-2.14,3.19-1.16,3.01-4.17,7.1-1.08,1.21-.37,1.64-.79,2.08-.47.23-.45-.21-1.22,1.14-1.55,2.76-2.35,2.97-2.11,3.49.33.7.68.93-.62,2.51-.11.13-.14.17-.21.24-.19.17-.08.27.22.17.24-.08,1.85-.99,2.71-2.77.48-1.01.51-.29,1.55-1.8.41-.69.7-1.1.8-1.34.71-.49,1.61-1.76,1.8-2.24.22-.59.22-.94.78-1.23.56-.28,1.59-1.04,2.44-2.65.99-1.88.59-2.02.84-2.1.59-.19.58,1.03,1.83.62.64-.21-.38-1.61-.06-2.03.22-.23.49-.12.69.2.09.15.5,1.2,1.12.99,1-.35.32-2.68,1.64-3.21.33-.11.41.31.19.56-.38.43-.48,1.53-.42,2.06.09.7-.17,2.36-.29,2.94-.45,2.07-1.32,2.26-1.1,2.84.14.46-.67.64-1.16,1.15-.92.96-1.75,4.06-1.04,4.2.24.03.35-.14.46-.4.12-.26.18-.35.44-.63Z"/>
      <path class="cls-9" d="M499.79,102.8c-.71-.12-.8-.15-1.27.3-.42.39-.94,1.98-.26,2.19.27-.01.66-.56.99-.86.34-.31,1.27-1.38.54-1.62Z"/>
      <path class="cls-9" d="M515.39,89.57c-.39.51-.76.35-1.16.2-.58-.22-2.39-2.02-4.96-3.86-2.57-1.84-3.38-2.27-4.87-3.12-.37-.21-.99-.23-.69-.72.98-1.61,1.19-2.17,2.58-1.58,1.63.7,7.19,4.48,9.85,6.86.14.29.81.29-.74,2.21Z"/>
    </g>
  </g>
  <g>
    <line class="cls-6" x1="719.23" y1="278.32" x2="741.37" y2="290.38"/>
    <g>
      <path class="cls-8" d="M715.24,287.64c-1.12-.67-2.72-1.57-5.19-2.8-1.15-.57-1.16-1.18-.46-3.35.3-.94-.6-.84-1.38-1.61-.66-.79.28-2.88.28-2.88.24-.46,0-.6-.18-.61-4.04-.4-6.37-4.4-6.64-4.08-1.51,1.33-3.09.3-3.07-.24-.36.77-1.85.77-2.1.4-.9-1.36-.66-1.86-1.37-2.65-1.23-1.57-.48-2.14-1.98-3.06-1.09-.67-1.36-1.06-1.5-1.45-.54-1.78,1.3-2.75,2.28-2.87.38-1.33,2.89-1.85,3.83-2.62-.52-.3-1.26-.86-2.28-1.96-.53-.58-.55-.17-1.62-.9-1.46-.97-1.96-1.45-2.32-1.93-.21-.28-1.71-1.06-2.34-1.74-2.26-1.69-.67-3.68-.5-3.86.07-.08.09-.06.55.19.59.38,1.87.66,2.7,1.3.33.23.97.38,1.76.96,1.17.4,1.8,1.11,3.29,1.34.22.05.08.2.52.39.23.1.3-.09.91.34.7.49,1.69.93,2.59,1.42.9.49,1.71.69,4.02,1.71.95.41,1.88.39,2.36,1.08.73,1.05,3.39,4.48,6.13,8.37.06.08.29.45.76.07.84-.55.96-.19,2.42.66,1.08.53.74-.7,1.88-.05,1.76,1.01,2.39,1.54,5.02,2.91,1.07.56,1.38.67.99,1.43l-8.64,15.86c-.13.24-.37.43-.7.25Z"/>
      <path class="cls-9" d="M688.98,250.14c-.45.67.95,1.2,1.52,1.38.34.11.84-.25.59-.53l-2.01-.87s-.1,0-.1.02Z"/>
      <path class="cls-9" d="M694.86,263.96c.69.52.45.79.88.96.57.21.21-.25,2,.79.53.29.83.41,1.07.82.26-.05.78-.02.93.39.73.23.54.02,1.52.89,1.32,1.16,1.95.71,2.84.75.23.02.39.02.73.27,2.6,1.85,1.4,1.19,5.38,3.05,1.47.47,2.38.04,3.31-1.8,1.01-2.11.41-2.06-.45-3.16-3.46-4.51-5.57-7.92-6.81-8.49-3.4-1.79-3.12-.84-7.5-3.4-1.31-.94-1.67-.2-2.15-.57-.28-.44.17-.47-1.27-1.09-2.91-1.26-3.2-2.03-3.69-1.73-.66.4-.85.78-2.56-.35-.14-.09-.18-.12-.26-.18-.19-.17-.27-.05-.15.23.1.23,1.18,1.74,3.04,2.4,1.06.37.34.48,1.95,1.35.73.34,1.17.58,1.42.65.56.65,1.92,1.42,2.42,1.55.61.16.96.12,1.3.65.34.53,1.2,1.47,2.89,2.15,1.97.79,2.07.38,2.18.62.25.56-.96.69-.43,1.88.27.62,1.56-.55,2.01-.28.26.19.17.47-.13.7-.14.11-1.14.63-.86,1.22.45.96,2.69.04,3.36,1.29.14.32-.26.44-.54.25-.47-.33-1.58-.31-2.1-.2-.69.17-2.36.08-2.96.02-2.1-.23-2.39-1.07-2.94-.8-.44.19-.71-.6-1.27-1.03-1.05-.82-4.22-1.31-4.28-.59,0,.25.18.33.44.41.27.09.37.14.67.37Z"/>
      <path class="cls-9" d="M694.73,265.73c.05-.72.06-.81-.43-1.23-.43-.37-2.07-.72-2.2-.03.04.27.63.6.96.89.35.31,1.51,1.12,1.67.37Z"/>
      <path class="cls-9" d="M709.53,279.85c-.55-.34-.43-.72-.32-1.14.16-.6,1.76-2.59,3.31-5.34,1.56-2.75,1.9-3.6,2.58-5.17.17-.39.12-1.01.65-.76,1.7.81,2.28.95,1.84,2.4-.52,1.69-3.7,7.63-5.79,10.51-.27.17-.2.84-2.28-.51Z"/>
    </g>
  </g>
  <g>
    <line class="cls-6" x1="337.13" y1="311.23" x2="374.51" y2="310.96"/>
    <g>
      <path class="cls-8" d="M338.15,321.32c-1.31-.04-3.14-.05-5.9.07-1.28.06-1.58-.47-2.03-2.7-.19-.97-.93-.45-1.99-.74-.96-.37-1.15-2.66-1.15-2.66-.01-.52-.29-.53-.46-.45-3.73,1.61-7.7-.76-7.79-.35-.67,1.89-2.56,1.76-2.8,1.28.06.85-1.24,1.56-1.65,1.37-1.45-.75-1.48-1.31-2.49-1.65-1.84-.78-1.46-1.64-3.21-1.72-1.28-.06-1.71-.27-2.01-.54-1.34-1.29-.2-3.04.6-3.62-.31-1.35,1.64-3.02,2.08-4.15-.6,0-1.52-.14-2.94-.61-.74-.25-.56.12-1.86,0-1.75-.14-2.41-.32-2.97-.57-.32-.15-2.01-.1-2.89-.39-2.79-.38-2.37-2.9-2.31-3.13.02-.1.05-.1.57-.1.7.05,1.96-.33,2.99-.17.4.05,1.03-.13,2.01-.01,1.22-.22,2.11.09,3.53-.42.21-.07.17.14.64.09.25-.03.22-.23.96-.15.85.09,1.93,0,2.96-.01,1.03,0,1.83-.22,4.34-.45,1.03-.1,1.83-.57,2.58-.2,1.15.56,5.14,2.27,9.42,4.35.09.04.47.25.7-.31.47-.89.75-.63,2.43-.59,1.2-.06.3-.97,1.62-.95,2.03.03,2.83.19,5.8.11,1.21-.03,1.53-.08,1.56.77l.13,18.06c0,.28-.12.56-.5.56Z"/>
      <path class="cls-9" d="M297,301.26c-.07.8,1.41.59,2,.47.35-.07.61-.63.26-.75l-2.18.22s-.08.05-.08.07Z"/>
      <path class="cls-9" d="M308.84,310.49c.86.12.78.48,1.24.41.6-.09.06-.32,2.13-.28.6,0,.93-.05,1.33.2.2-.17.67-.4,1-.11.75-.16.48-.24,1.76.04,1.72.38,2.05-.33,2.85-.72.21-.1.35-.18.77-.12,3.17.36,1.8.36,6.18.06,1.52-.3,2.1-1.12,2.02-3.18-.14-2.33-.64-2-1.93-2.55-5.21-2.27-8.72-4.23-10.07-4.12-3.84.08-3.13.78-8.21.66-1.61-.19-1.55.64-2.15.54-.46-.25-.08-.49-1.64-.34-3.15.31-3.78-.22-4.07.28-.38.67-.37,1.09-2.41.93-.17-.01-.22-.02-.32-.03-.25-.06-.26.09-.02.28.2.15,1.87.95,3.82.62,1.1-.18.53.25,2.36.24.8-.06,1.3-.06,1.55-.12.81.3,2.36.31,2.87.18.61-.16.9-.36,1.45-.06.55.3,1.76.7,3.57.48,2.11-.27,1.99-.67,2.21-.52.49.37-.5,1.07.54,1.85.54.41,1.1-1.24,1.62-1.22.32.04.38.33.23.68-.07.16-.69,1.1-.16,1.48.86.62,2.38-1.27,3.56-.5.28.21-.02.52-.35.48-.57-.06-1.53.49-1.93.84-.52.48-2.02,1.22-2.58,1.45-1.95.82-2.61.22-2.96.72-.3.38-.91-.18-1.61-.29-1.32-.21-4.32.9-4.03,1.56.11.22.32.2.59.15.28-.05.39-.05.77,0Z"/>
      <path class="cls-9" d="M309.59,312.11c-.31-.65-.34-.74-.97-.87-.56-.12-2.16.37-1.94,1.04.17.21.84.22,1.27.32.45.1,1.86.25,1.64-.49Z"/>
      <path class="cls-9" d="M329.38,317.27c-.65-.03-.72-.42-.83-.84-.15-.6.28-3.11.31-6.28.03-3.16-.08-4.07-.25-5.77-.04-.42-.38-.94.2-.98,1.88-.12,2.46-.27,2.77,1.21.36,1.73.46,8.46.04,12-.15.28.23.83-2.24.66Z"/>
    </g>
  </g>
  <rect class="cls-2" x="176.39" y="113.25" width="99.51" height="45.61" rx="7.05" ry="7.05"/>
  <rect class="cls-5" x="298.26" y="113.25" width="33.8" height="45.61" rx="7.05" ry="7.05"/>
  <rect class="cls-4" x="350.15" y="113.25" width="251.25" height="45.61" rx="7.05" ry="7.05"/>
  <rect class="cls-1" x="177.07" y="195.69" width="513.56" height="53.18" rx="7.05" ry="7.05"/>
  <rect class="cls-3" x="177.47" y="281.49" width="98.43" height="53.18" rx="7.05" ry="7.05"/>
  <text class="cls-12" transform="translate(11.82 91.95)"><tspan x="0" y="0">メソッド</tspan></text>
  <text class="cls-12" transform="translate(159.57 38.18)"><tspan x="0" y="0">パスとクエリパラメータ</tspan></text>
  <text class="cls-12" transform="translate(532.13 47.3)"><tspan x="0" y="0">プロトコルのバージョン</tspan></text>
  <text class="cls-12" transform="translate(745.44 308.08)"><tspan x="0" y="0">ヘッダー</tspan></text>
  <text class="cls-12" transform="translate(393.07 319.46)"><tspan x="0" y="0">リクエストボディ</tspan></text>
  <text class="cls-11" transform="translate(184.54 310.96)"><tspan x="0" y="0">...</tspan></text>
</svg>